<?xml version="1.0" encoding="UTF-8"?>
<!DOCTYPE svg PUBLIC "-//W3C//DTD SVG 1.1//EN" "http://www.w3.org/Graphics/SVG/1.1/DTD/svg11.dtd">
<!-- Creator: CorelDRAW 2021.5 -->
<svg xmlns="http://www.w3.org/2000/svg" xml:space="preserve" width="210mm" height="297mm" version="1.1" style="shape-rendering:geometricPrecision; text-rendering:geometricPrecision; image-rendering:optimizeQuality; fill-rule:evenodd; clip-rule:evenodd"
viewBox="0 0 21000 29700"
 xmlns:xlink="http://www.w3.org/1999/xlink"
 xmlns:xodm="http://www.corel.com/coreldraw/odm/2003">
 <defs>
  <style type="text/css">
   <![CDATA[
    .fil0 {fill:#F3F3F3}
    .fil1 {fill:#FFF000}
    .fil2 {fill:#F3F3F3;fill-rule:nonzero}
   ]]>
  </style>
 </defs>
 <g id="Warstwa_x0020_1">
  <metadata id="CorelCorpID_0Corel-Layer"/>
  <g>
   <path class="fil0" d="M-16976.81 10582.22c132.17,-191.88 192.16,-155.3 480.18,-153.05 557.17,4.35 1409.45,-25.96 1897.29,6.7 -159.68,522 -713.55,-93.77 -594.22,1269.56 32.48,371.1 271.43,315.98 488.91,464.61 274.14,187.34 -41.43,461.05 -6.01,733.51 26.06,200.52 305.89,428.67 421.45,544.79 177.85,178.72 320.42,284.03 637.04,147.92 401.5,-172.6 405.69,42.8 535.26,301.85 146.28,292.45 340.79,246.73 712.84,245.99 897.86,-1.76 499.83,-408.35 811.6,-571.33 379.31,-198.29 419.38,429.92 1002.94,-159.57 123.75,-125 393.28,-310.85 407.74,-545.82 15.41,-250.5 -269.14,-509.49 -26.18,-694.73 200.45,-152.84 452.77,-54.98 504.04,-439.85 29.51,-221.47 43.27,-703.9 -63.85,-865.18 -179.89,-270.83 -432.58,-90.52 -527.26,-436.07 506.65,-8.47 1017.31,-1.95 1524.47,-1.95 814.23,0 885.56,-146.11 884.89,675.01 -0.84,1026.69 -1.31,2053.04 -0.02,3079.76 -378.35,2.29 -453.49,244.67 -599.38,-85.07 -106.99,-241.8 -189.49,-264.59 -568.1,-263.56 -629.94,1.7 -374.27,184.14 -633.5,433.99 -400.39,26.91 -322.04,-301.66 -774.42,153.79 -486.56,489.85 -122.1,366.54 -183.51,818.77 -320.12,246.65 -835.77,172.93 -1336.24,172.9l-4515.73 -0.84c-369.02,3.66 -265.49,12.97 -499.83,-132.37 -40.79,-480.7 -55.38,-4424.04 19.6,-4699.76zm5925.69 5216.32c-49.11,605.74 68.51,481.18 402.61,702.46 24.43,126 9.06,146.9 -23.29,250.09 -50.26,160.33 -5.28,131.53 -109.6,175.41l-4762.5 0.56c-270.41,0.02 -540.98,-0.97 -811.39,-0.4 -331.03,0.71 -423.87,66.89 -633.36,-146.81l-21.8 -1036.34c765.22,123.85 2102.06,50.71 2948.21,50.71 986.98,0 2030.51,-33.28 3011.12,4.32zm-6328.17 244.17c16.15,410.21 -75.26,799.77 179.21,1056.77 254.29,256.83 653.26,191.53 1091.73,191.43 836.76,-0.19 1728.88,-29.93 2558.71,3.34l-122.75 951c-463.4,9.04 -657.68,-54.74 -845.69,306.48 -129.37,248.56 -336.15,614.48 -110.81,880.46 181.99,214.8 645.19,154.72 989.99,154.71 400.07,-0.01 799.64,-3.27 1199.44,-1.74 388,1.48 776.06,1.62 1164.17,1.62 372.61,0 811.03,72.47 1009.19,-170.88 232.37,-285.35 20.58,-589.59 -108.68,-850.41 -218.02,-439.91 -451.07,-266.7 -791.62,-330.83l-187.08 -941.32c372.27,-6.28 804.41,-62.23 959.33,90.41 381.25,375.63 408.6,37.33 754.03,106.56 152.66,380.79 166.71,423.74 659.04,420.86 202.43,-1.18 316.81,-12.62 423.74,-137.55 356.68,-416.72 -116.79,-794.99 -267.77,-233.96l-413.83 -3.62c-112.56,-428.85 -420.2,-535.5 -801.63,-358.21l-308.22 -277.88c197.79,-389.58 90.55,-714.72 -340.85,-812.95 -5.12,-524.97 -36.1,-375.22 221.69,-505.94 122.49,-62.11 105.82,-67.62 168.08,-222.06 135.22,-335.39 15.49,-229.91 -35.46,-564.01l249.98 -230.37c271.18,57.35 238.67,163.21 542.72,37.05 223.8,-92.86 225.42,-141.14 309.41,-390.24l402.26 -2.11c82.85,247.62 76.75,292.09 305.01,390.73 317.67,137.29 259.54,24.91 531.49,-29.99l267.99 271.54c-96.62,282.54 -159.7,220.66 -27.78,539.93 115.72,280.08 175.89,153.17 380.45,309.2l2.39 375.52c-259.23,120.73 -368.89,113.12 -441.32,447.88 -52.99,244.92 105.55,530.42 387.45,381.48 63.62,-221.37 -31.31,-186.09 9.06,-385.69 294.44,-240.03 409.63,-28.88 410.56,-642.84 0.99,-650.99 -145.57,-374.66 -408.13,-634.96 -45.27,-219.75 66.19,-210.29 59.38,-422.98 -7.2,-224.55 -121.43,-186.27 -158.21,-354.29 -58.9,-269.08 60.85,-3683.48 -42.84,-3965.35 -83.6,-227.24 -290.44,-410.87 -584.93,-429.94 -655.98,-42.49 -1377.53,22.66 -2045.05,-6.73 21.77,-369.37 -173.84,-481.33 -346.45,-644.13 -187.43,-176.77 -319.55,-385.07 -672.8,-244.8 -294.77,117.05 -375.5,192.69 -551.11,-223.67 -135.66,-321.63 -288.95,-301.3 -683.58,-301.2 -356.7,0.09 -565.96,-13.8 -697.16,286.96 -150.01,343.88 -176.46,388.8 -543.75,244.43 -363.58,-142.92 -508.64,70.4 -670.29,234.77 -177.23,180.21 -381.52,268.11 -360.06,652.1 -2571.25,3.38 -2664.18,-276.94 -2666.55,1294.27 -1.97,1298.64 -18.12,2617.04 1.05,3916.01l-3.15 775.14zm8135.03 -1234.2c-1447.31,309.69 -956.78,2431.28 455.93,2131.22 496.7,-105.5 959.81,-635.88 818.3,-1310.04 -110.44,-526.12 -643.39,-956.17 -1274.23,-821.18zm-11.42 383.59c-954.46,355.36 -392.26,1656.56 441.4,1371.92 919.64,-314.01 472.14,-1712.04 -441.4,-1371.92zm-3527.22 -5117.36c-407.57,117.29 -615.32,281.77 -798.23,558.75 -677.06,1025.24 221.32,2361.79 1451.91,2084.97 622.01,-139.92 1207.12,-812.21 1002.04,-1658.12 -152.34,-628.36 -845.36,-1218.83 -1655.72,-985.6zm100.4 350.82c-465.11,119.06 -908.73,601.86 -728.58,1227.82 363.22,1262.09 2262.51,755.85 1925.44,-515.78 -120.78,-455.67 -603.91,-863.81 -1196.86,-712.04zm31.38 8794.69l1940.27 -0.21c232.96,0 212.23,-86.94 125.18,-265.52 -60.66,-124.44 -114.54,-237.22 -195.73,-326.89l-3355.59 -6.21c-66.24,106.17 -168.4,280.05 -213.49,420.78 -78.08,243.66 189.86,179.6 393.89,178.12 434.83,-3.16 870.53,0.36 1305.47,-0.07zm-652.17 -973.38l1702.38 0.43 -130.25 -957.76 -1435.06 1.57 -137.07 955.76zm-625.91 -8763.08l-408.94 421.28c29.22,389.65 258.05,278.28 58.92,736.62 -171.42,394.59 -219.98,246.98 -547.01,436.42l-3.73 625.67c88.32,55.94 199.96,93.39 312.22,138.99 202.67,82.32 140.21,51.46 224.71,267.47 340.62,870.73 -563.67,345.35 371.91,1177 371.91,-30.53 263.77,-259.62 708.22,-70.55 469.14,199.56 209.37,164.15 451.07,561.66l630.42 -1.61c166.83,-350.07 82.79,-416.39 434.4,-553.89 469.62,-183.66 285.29,-10.61 703.94,70.31l435.38 -421.78c-19.21,-382.08 -263.31,-268.48 -64.65,-724.75 198.48,-455.84 208.26,-207.68 545.59,-442.29l11.92 -643.76c-524.9,-187.12 -431.33,-133.33 -548.48,-406.33 -186.04,-433.51 -37.57,-312.25 61.75,-713.8l-439.24 -452.59c-364.62,76.35 -267.12,255.47 -687.97,80.79 -172.59,-71.64 -223.96,-50.79 -298.01,-196.66 -38.95,-76.72 -117.14,-278.22 -137.24,-354.06l-607.65 -7.04c-239.87,138.44 -8.53,359.73 -457.69,541.52 -471.13,190.68 -312.74,27.01 -749.84,-68.62z"/>
   <path id="_1" class="fil1" d="M-16996.41 15281.98c-40.79,-480.7 -55.38,-4424.04 19.6,-4699.76 132.17,-191.88 192.16,-155.3 480.18,-153.05 557.17,4.35 1409.45,-25.96 1897.29,6.7 -159.68,522 -713.55,-93.77 -594.22,1269.56 32.48,371.1 271.43,315.98 488.91,464.61 274.14,187.34 -41.43,461.05 -6.01,733.51 26.06,200.52 305.89,428.67 421.45,544.79 177.85,178.72 320.42,284.03 637.04,147.92 401.5,-172.6 405.69,42.8 535.26,301.85 146.28,292.45 340.79,246.73 712.84,245.99 897.86,-1.76 499.83,-408.35 811.6,-571.33 379.31,-198.29 419.38,429.92 1002.94,-159.57 123.75,-125 393.28,-310.85 407.74,-545.82 15.41,-250.5 -269.14,-509.49 -26.18,-694.73 200.45,-152.84 452.77,-54.98 504.04,-439.85 29.51,-221.47 43.27,-703.9 -63.85,-865.18 -179.89,-270.83 -432.58,-90.52 -527.26,-436.07 506.65,-8.47 1017.31,-1.95 1524.47,-1.95 814.23,0 885.56,-146.11 884.89,675.01 -0.84,1026.69 -1.31,2053.04 -0.02,3079.76 -378.35,2.29 -453.49,244.67 -599.38,-85.07 -106.99,-241.8 -189.49,-264.59 -568.1,-263.56 -629.94,1.7 -374.27,184.14 -633.5,433.99 -400.39,26.91 -322.04,-301.66 -774.42,153.79 -486.56,489.85 -122.1,366.54 -183.51,818.77 -320.12,246.65 -835.77,172.93 -1336.24,172.9l-4515.73 -0.84c-369.02,3.66 -265.49,12.97 -499.83,-132.37zm5945.29 516.56c-49.11,605.74 68.51,481.18 402.61,702.46 24.43,126 9.06,146.9 -23.29,250.09 -50.26,160.33 -5.28,131.53 -109.6,175.41l-4762.5 0.56c-270.41,0.02 -540.98,-0.97 -811.39,-0.4 -331.03,0.71 -423.87,66.89 -633.36,-146.81l-21.8 -1036.34c765.22,123.85 2102.06,50.71 2948.21,50.71 986.98,0 2030.51,-33.28 3011.12,4.32zm1411 1691.77c152.66,380.79 166.71,423.74 659.04,420.86 202.43,-1.18 316.81,-12.62 423.74,-137.55 356.68,-416.72 -116.79,-794.99 -267.77,-233.96l-413.83 -3.62c-112.56,-428.85 -420.2,-535.5 -801.63,-358.21l-308.22 -277.88c197.79,-389.58 90.55,-714.72 -340.85,-812.95 -5.12,-524.97 -36.1,-375.22 221.69,-505.94 122.49,-62.11 105.82,-67.62 168.08,-222.06 135.22,-335.39 15.49,-229.91 -35.46,-564.01l249.98 -230.37c271.18,57.35 238.67,163.21 542.72,37.05 223.8,-92.86 225.42,-141.14 309.41,-390.24l402.26 -2.11c82.85,247.62 76.75,292.09 305.01,390.73 317.67,137.29 259.54,24.91 531.49,-29.99l267.99 271.54c-96.62,282.54 -159.7,220.66 -27.78,539.93 115.72,280.08 175.89,153.17 380.45,309.2l2.39 375.52c-259.23,120.73 -368.89,113.12 -441.32,447.88 -52.99,244.92 105.55,530.42 387.45,381.48 63.62,-221.37 -31.31,-186.09 9.06,-385.69 294.44,-240.03 409.63,-28.88 410.56,-642.84 0.99,-650.99 -145.57,-374.66 -408.13,-634.96 -45.27,-219.75 66.19,-210.29 59.38,-422.98 -7.2,-224.55 -121.43,-186.27 -158.21,-354.29 -58.9,-269.08 60.85,-3683.48 -42.84,-3965.35 -83.6,-227.24 -290.44,-410.87 -584.93,-429.94 -655.98,-42.49 -1377.53,22.66 -2045.05,-6.73 21.77,-369.37 -173.84,-481.33 -346.45,-644.13 -187.43,-176.77 -319.55,-385.07 -672.8,-244.8 -294.77,117.05 -375.5,192.69 -551.11,-223.67 -135.66,-321.63 -288.95,-301.3 -683.58,-301.2 -356.7,0.09 -565.96,-13.8 -697.16,286.96 -150.01,343.88 -176.46,388.8 -543.75,244.43 -363.58,-142.92 -508.64,70.4 -670.29,234.77 -177.23,180.21 -381.52,268.11 -360.06,652.1 -2571.25,3.38 -2664.18,-276.94 -2666.55,1294.27 -1.97,1298.64 -18.12,2617.04 1.05,3916.01l-3.15 775.14c16.15,410.21 -75.26,799.77 179.21,1056.77 254.29,256.83 653.26,191.53 1091.73,191.43 836.76,-0.19 1728.88,-29.93 2558.71,3.34l-122.75 951c-463.4,9.04 -657.68,-54.74 -845.69,306.48 -129.37,248.56 -336.15,614.48 -110.81,880.46 181.99,214.8 645.19,154.72 989.99,154.71 400.07,-0.01 799.64,-3.27 1199.44,-1.74 388,1.48 776.06,1.62 1164.17,1.62 372.61,0 811.03,72.47 1009.19,-170.88 232.37,-285.35 20.58,-589.59 -108.68,-850.41 -218.02,-439.91 -451.07,-266.7 -791.62,-330.83l-187.08 -941.32c372.27,-6.28 804.41,-62.23 959.33,90.41 381.25,375.63 408.6,37.33 754.03,106.56zm395.86 -2681.8c-1447.31,309.69 -956.78,2431.28 455.93,2131.22 496.7,-105.5 959.81,-635.88 818.3,-1310.04 -110.44,-526.12 -643.39,-956.17 -1274.23,-821.18zm-11.42 383.59c-954.46,355.36 -392.26,1656.56 441.4,1371.92 919.64,-314.01 472.14,-1712.04 -441.4,-1371.92zm-3527.22 -5117.36c-407.57,117.29 -615.32,281.77 -798.23,558.75 -677.06,1025.24 221.32,2361.79 1451.91,2084.97 622.01,-139.92 1207.12,-812.21 1002.04,-1658.12 -152.34,-628.36 -845.36,-1218.83 -1655.72,-985.6zm100.4 350.82c-465.11,119.06 -908.73,601.86 -728.58,1227.82 363.22,1262.09 2262.51,755.85 1925.44,-515.78 -120.78,-455.67 -603.91,-863.81 -1196.86,-712.04zm31.38 8794.69l1940.27 -0.21c232.96,0 212.23,-86.94 125.18,-265.52 -60.66,-124.44 -114.54,-237.22 -195.73,-326.89l-3355.59 -6.21c-66.24,106.17 -168.4,280.05 -213.49,420.78 -78.08,243.66 189.86,179.6 393.89,178.12 434.83,-3.16 870.53,0.36 1305.47,-0.07zm-652.17 -973.38l1702.38 0.43 -130.25 -957.76 -1435.06 1.57 -137.07 955.76zm-625.91 -8763.08l-408.94 421.28c29.22,389.65 258.05,278.28 58.92,736.62 -171.42,394.59 -219.98,246.98 -547.01,436.42l-3.73 625.67c88.32,55.94 199.96,93.39 312.22,138.99 202.67,82.32 140.21,51.46 224.71,267.47 340.62,870.73 -563.67,345.35 371.91,1177 371.91,-30.53 263.77,-259.62 708.22,-70.55 469.14,199.56 209.37,164.15 451.07,561.66l630.42 -1.61c166.83,-350.07 82.79,-416.39 434.4,-553.89 469.62,-183.66 285.29,-10.61 703.94,70.31l435.38 -421.78c-19.21,-382.08 -263.31,-268.48 -64.65,-724.75 198.48,-455.84 208.26,-207.68 545.59,-442.29l11.92 -643.76c-524.9,-187.12 -431.33,-133.33 -548.48,-406.33 -186.04,-433.51 -37.57,-312.25 61.75,-713.8l-439.24 -452.59c-364.62,76.35 -267.12,255.47 -687.97,80.79 -172.59,-71.64 -223.96,-50.79 -298.01,-196.66 -38.95,-76.72 -117.14,-278.22 -137.24,-354.06l-607.65 -7.04c-239.87,138.44 -8.53,359.73 -457.69,541.52 -471.13,190.68 -312.74,27.01 -749.84,-68.62zm-2687.21 1083.48c-122.99,-3.6 -168.39,-4.92 -228.45,72.62 -26.77,166.62 -40.02,938.53 -43.65,1808.43 -4.62,1108.76 7.85,2370.6 28.19,2753.73 19,12.49 34.05,22.78 47.29,31.82 31.48,21.51 48.9,33.41 59.22,36.14 24.5,6.48 75.03,5.88 188.02,4.54 19.46,-0.23 40.88,-0.5 68.11,-0.76l0 0.01c0.37,0 0.73,-0.01 1.1,-0.01l4515.73 0.84c98.31,0.01 193.32,2.65 287.43,5.24 352.49,9.77 691.88,19.12 914.59,-115.97 3.39,-94.45 -20.02,-150.53 -39.28,-196.63 -71.88,-172.06 -112.92,-270.31 257.24,-642.97 358.57,-361 462.96,-315.47 638.6,-238.85 43.43,18.95 94.96,41.42 173.09,44.54 39.14,-48.92 56.48,-95.54 71.55,-136.07 67.68,-181.98 110.6,-297.36 624.45,-298.74 208.94,-0.57 338.51,6.45 442.68,52.3 120.47,53.02 185.74,139.89 254.4,295.05 40.76,92.13 65.04,83.99 114.77,67.32 57.4,-19.25 126.26,-42.34 214.92,-55.49 -0.52,-470.01 -0.69,-939.96 -0.64,-1409.88 0.05,-513.26 0.4,-1026.54 0.81,-1539.87 0.38,-480.53 -24.02,-544.34 -242.76,-544.52 -50.01,-0.03 -111.19,1.86 -180.79,4.01 -98.81,3.06 -213.22,6.61 -320.78,6.61 -12.28,0 -236.95,-0.88 -461.6,-1.75 -236.85,-0.91 -473.99,-1.83 -710.78,-0.57 97.91,33.25 199.59,81.51 292.58,221.51 59.89,90.17 90.15,238.04 101.89,397.2 14.72,199.52 2.13,427.81 -15.99,563.89 -46.23,347.04 -211.3,400.65 -394.86,460.23 -56.95,18.48 -116.72,37.9 -163.2,73.33 -68.92,52.55 -31.8,150.29 7.56,253.87 39.97,105.24 81.31,214.04 73.74,337.23 -15.09,245.39 -214.12,423.84 -365.59,559.65 -30.57,27.42 -58.74,52.68 -82.94,77.12 -423.97,428.28 -625.74,318.29 -820.75,211.97 -66.51,-36.26 -131.52,-71.69 -216.92,-27.05 -53.38,27.9 -67.22,85.91 -81.28,144.96 -51.68,216.89 -105.12,441.02 -795.36,442.36 -44.04,0.08 -87.96,0.89 -129.31,1.64 -344.56,6.27 -541.56,9.83 -709.21,-325.35 -23.72,-47.44 -41.13,-87.42 -57.44,-124.91 -52.78,-121.27 -87.16,-200.23 -296.47,-110.25 -193.56,83.2 -339.99,90.66 -469.78,48.51 -125.44,-40.74 -219.91,-123.44 -322.7,-226.74 -16.38,-16.46 -40.38,-39.08 -66.99,-64.16 -146.9,-138.46 -365.99,-344.97 -394.15,-561.66l0.08 -0.01c-0.03,-0.18 -0.06,-0.36 -0.08,-0.54 -18.12,-139.48 26.41,-261.06 68.88,-377.02 38.98,-106.42 74.98,-204.68 -2.78,-257.82 -50.27,-34.35 -109.16,-57.67 -164.48,-79.56 -192.28,-76.11 -355.11,-140.58 -385.62,-489.23 -85.23,-973.73 162.2,-1060.22 407.54,-1145.96 6.89,-2.41 13.77,-4.81 20.63,-7.29 -279.62,-6.06 -612.2,-2.2 -930.27,1.5 -237.27,2.76 -466.57,5.43 -660.96,3.92 -0.18,0 -0.37,0 -0.55,0 -47.25,-0.36 -85.04,-1.48 -118.68,-2.46zm5711.44 5950.1c-225.38,-113.19 -315.04,-158.25 -296.17,-583.31 -623.23,-19.51 -1268.45,-12.72 -1906.23,-6.01 -347.31,3.64 -692.84,7.28 -954.87,7.28 -242.24,0 -476.23,4.5 -723.63,9.25 -700.97,13.46 -1503.43,28.87 -2080.56,-39.17l17.1 812.59c98.49,84.94 170.27,81.18 303.38,74.18 52.4,-2.76 112.27,-5.92 190.66,-6.08 164.13,-0.34 328.36,-0.11 492.54,0.11 106.29,0.14 212.59,0.29 318.85,0.29l4716.28 -0.55c4.83,-20.18 11.45,-45.26 21.32,-76.75 3.23,-10.32 7.3,-22.83 11.12,-34.6 11.43,-35.23 18.02,-55.57 16.3,-89.34 -47.77,-28.55 -89.56,-49.53 -126.09,-67.89zm-6615.56 -188.09c2.17,-91.69 4.41,-186.06 0.68,-281.06l0.11 0c-0.07,-2.01 -0.12,-4.03 -0.11,-6.06l3.14 -773.42c-13.68,-928.26 -9.35,-1866.76 -5.05,-2800.87 1.73,-373.41 3.46,-746.16 4.01,-1116.31 1.94,-1295.13 60.33,-1454.03 1281.79,-1452.19 155.56,0.23 329.22,3.35 526.12,6.87 248.23,4.44 533.47,9.55 859.89,10.4 22.16,-270.36 156.91,-390.62 303.62,-521.5 33.38,-29.79 67.55,-60.28 95.43,-88.62 13.24,-13.45 30.07,-31.29 46.84,-49.03 176.48,-186.83 360.2,-381.33 775.03,-218.26 143.36,56.34 213.65,79.1 238.7,66.39 27.3,-13.85 62.81,-93.72 124.81,-235.85 162.37,-372.24 393.88,-371.9 780.75,-371.34l45.39 0.04c22.86,0 44.95,-0.09 66.23,-0.15 411.94,-1.38 582.69,-1.94 746.88,387.34 107.4,254.65 156.22,234.66 301.17,175.28 16.78,-6.88 35.13,-14.39 68.6,-27.68 392.69,-155.93 563.86,16.01 752.2,205.23 22,22.1 44.31,44.53 68.87,67.68 26.85,25.32 47.57,43.7 68.11,61.91 153.05,135.73 299.63,265.79 321.65,548.84 267.71,7 542.76,1.11 817.51,-4.77 372.56,-7.98 744.61,-15.94 1096.59,6.85 169.45,10.96 315.41,67.71 432.97,154.11 128.69,94.6 222.56,224.18 275.43,367.88 67.43,183.32 54.12,1367.21 42.39,2410.17 -8.71,775.43 -16.54,1471.14 5.96,1573.92 8.12,37.1 25.93,56.98 43.43,76.52 56.5,63.07 111.82,124.83 117.54,303.13 4.07,127.4 -23.57,192.93 -49.35,254 -11.9,28.2 -22.98,54.49 -19.1,102.74 52.95,43.24 100.27,60.24 139.84,74.43 181.12,64.98 278.17,99.84 277.36,631.18 -0.78,522.68 -82.51,558.41 -277.24,643.45 -39.9,17.44 -87.74,38.34 -142.74,76.55 -1.4,28.78 3.1,46.76 7.5,64.32 16.42,65.47 32.22,128.56 -12.1,282.79l-0.2 -0.06c-10.17,35.72 -34.36,67.38 -69.81,86.05 -105.57,55.78 -203.41,68.09 -289.57,49.46 -57.63,-12.46 -108.87,-39.08 -152.97,-76.21 -41.21,-34.7 -74.77,-77.65 -100.17,-125.72 -57.84,-109.47 -76.62,-251.65 -48.13,-383.35 3.4,-15.71 6.87,-30.78 10.4,-45.32 -15.46,29.89 -32.05,58.98 -49.69,87.22 -179.66,287.64 -468.77,487.44 -769.3,551.27 -221.06,46.95 -422.25,40.96 -600.5,-5.07 78.88,61.05 144.86,145.64 195.43,254.45 10.21,21.96 19.81,45.12 28.78,69.47l209.36 1.83c61.86,-150.71 152.54,-234.34 244.36,-266.14 84,-29.1 166.89,-17.57 236.56,25.16 62.8,38.52 112.67,102.01 138.73,182.08 44.87,137.9 20.41,333.72 -144.01,525.81 -73.48,85.85 -150.72,133.05 -245.51,159.28 -82.51,22.85 -171.88,26.68 -284.61,27.33 -552.03,3.22 -601.36,-42.49 -758.17,-429.34 -57.27,1.63 -103.21,19.6 -145.61,36.2 -169.99,66.55 -308.72,120.85 -608.51,-174.52 -81.6,-80.4 -356.85,-69.01 -635.15,-57.51 -18.25,0.75 -36.52,1.51 -54.87,2.24l134.98 679.16c49.72,3.54 97.76,3.19 143.52,2.86 255.99,-1.87 459.66,-3.36 655.79,392.38 19.56,39.47 33.69,66.47 47.97,93.76 144.68,276.46 306.24,585.18 43.62,907.68 -205.51,252.37 -561.13,239.93 -910.16,227.72 -63.94,-2.24 -127.71,-4.47 -208.17,-4.47 -66.23,0 38.75,-0.1 -582.13,-0.8 -194.02,-0.21 -388.05,-0.64 -582.04,-1.37 -238.15,-0.9 -476.24,-0.11 -714.38,0.67 -244.7,0.8 -475.93,1.62 -485.06,1.62 -75.81,0 -130.25,1.58 -186.09,3.18 -340.6,9.81 -717.6,20.68 -911.39,-208.05 -277.22,-327.23 -69.93,-723.52 77.68,-1005.71l10.62 -20.34c1.48,-3.5 3.1,-6.97 4.88,-10.4 199.63,-383.55 392.94,-382.76 782.22,-381.16 20.91,0.08 42.51,0.17 64.86,0.19l87.3 -676.35c-518.58,-16.02 -1057.53,-9.99 -1589.55,-4.04 -272.67,3.04 -543.55,6.08 -809.98,6.14 -72.16,0.01 -146.55,1.97 -219.2,3.88 -381.19,10 -719.32,18.86 -972.3,-236.65 -235.68,-238.03 -228.54,-538.58 -220.68,-869.42zm7605.67 653.14c97.5,-25.59 190.58,-33.37 277.64,-22.83 -158.73,-91 -290.36,-218.03 -391.26,-366.34 -36.24,-53.27 -68.43,-109.24 -96.4,-167.21 18.65,90.79 16.11,188.95 -7.34,291.96 -10.89,47.84 -26.21,96.64 -45.91,146.1l165.73 149.42c30.54,-11.33 60.93,-21.09 91.11,-29.24 2.12,-0.67 4.26,-1.29 6.43,-1.86zm-529.24 -957.24c109.63,55.66 192.08,130.3 247.66,220.04 -12.47,-39.63 -23.1,-79.8 -31.84,-120.32l0.12 -0.03c-0.04,-0.17 -0.08,-0.35 -0.12,-0.53 -35.84,-166.11 -40.19,-339.63 -9.92,-507.52 3.93,-21.79 8.45,-43.47 13.55,-65 -32.21,71.41 -63.34,95.82 -179.91,154.92 -61.89,31.37 -106.79,47.82 -141.12,60.38l-0.07 -0.18c-0.16,0.06 -0.32,0.12 -0.48,0.18 -3.49,1.28 -3.9,-3.45 -3.35,-9.24l-2.36 -6.51c-2.38,15.19 -1.39,70.26 0.55,178.05 0.29,15.92 0.59,32.85 0.9,51 38.06,13.12 73.52,28.08 106.39,44.76zm-107.68 -274.71c-0.06,0.29 -0.11,0.58 -0.16,0.9l2.36 6.51c0.03,-0.36 0.07,-0.72 0.11,-1.09l-2.31 -6.32zm413.19 -778.1c41.74,93.85 65.23,146.73 21.49,293.93 150.59,-280.4 425.43,-506.11 843.63,-595.59l4.47 -0.95 0.02 0.12c0.18,-0.04 0.35,-0.08 0.53,-0.12 221.41,-46.47 432.26,-31.23 621.43,29.76 -193.21,-91.73 -222.54,-156.07 -285.87,-349.1l-199 1.04c-73.39,217.88 -106.65,276.54 -356.72,380.3 -260.94,108.27 -330.74,79.03 -462.62,23.77 -26.45,-11.09 -56.76,-23.79 -94.89,-35.55l-136.16 125.47c14.16,60.52 30.53,97.33 43.69,126.92zm2015.14 -211.74c-105.09,47.66 -166.38,75.42 -344.13,13.47 47.09,24.24 92.33,51.44 135.47,81.31 172.98,119.74 312.26,282.53 403.59,467.71 -72.44,-196.22 -52.26,-241.3 10.33,-381.01 8.39,-18.72 17.94,-40.03 28.4,-65.67l-148.12 -150.09c-34.86,11.3 -62.01,23.61 -85.54,34.28zm525.49 971.21c-106.29,-34.9 -178.46,-58.64 -265.76,-249.37 12.15,37.51 22.43,75.61 30.68,114.19l0.81 3.82 -0.12 0.02c0.04,0.18 0.08,0.35 0.12,0.53 44.78,213.36 35.5,414.13 -13.43,595.18 71.09,-109.05 167.71,-150.4 310.75,-211.62 7.2,-3.08 14.58,-6.24 22.36,-9.6l-1.33 -208.28c-32.58,-17.96 -60,-26.97 -84.08,-34.87zm-1608.66 -408c-274.65,102.25 -395.44,295.18 -406.94,492.11 -4.83,82.67 8.53,166.48 37.03,245.23 28.89,79.81 72.9,154.09 128.93,216.6l0.27 -0.24c136.72,152.31 348.21,234.91 587.85,153.09 272.37,-93 396.86,-300.97 409.05,-514.15 4.97,-86.95 -7.74,-174.56 -35.92,-255.87 -27.81,-80.24 -71.06,-154.77 -127.54,-216.74 -130.94,-143.7 -338.12,-214.82 -592.73,-120.03zm-4141.77 -5143.71c139.75,-100.47 307.52,-177.86 526.91,-240.99 15.46,-4.44 36.3,-9.85 62.25,-16.14 424.56,-102.92 817.02,-4.04 1126.98,203.08 307.33,205.36 533.27,518.67 627.72,846.83 3.65,12.69 8.37,30.96 14.05,54.36 2.55,10.56 4.68,19.61 6.41,27.28 102.33,454.88 -2.82,863.44 -217.56,1178.83 -214.02,314.33 -538.64,535.67 -875.75,617.39 -8.34,2.02 -15.26,3.66 -20.97,4.94 -446.65,100.47 -854.43,7.1 -1173.71,-203.74 -163.45,-107.94 -303.5,-246.93 -413.41,-406.6 -109.9,-159.64 -189.66,-339.97 -232.53,-530.57 -83.94,-373.18 -27.36,-785.28 219.46,-1159.03 100.37,-152 208.82,-274.04 350.15,-375.64zm700.62 382.13c-20.18,5.15 -19.77,4.71 -24.06,5.94 -0.05,0.01 -0.1,0.03 -0.15,0.04l0.15 0.51c-193.51,55.69 -380.23,183.43 -501.9,361.87 -119.29,174.93 -174.76,400.46 -109.36,656 2.68,10.49 5.22,19.86 7.61,28.18 112.33,390.34 393.19,583.83 693.39,620.7 122.57,15.05 247.79,5.12 366.05,-27.26 117.93,-32.29 229.96,-87.23 326.52,-162.26 233.51,-181.45 370.52,-484.75 267.73,-872.55 -55.37,-208.9 -199.68,-406.37 -399.89,-525.48 -173.13,-103 -389.07,-146.36 -626.09,-85.69zm-3.35 8517.43l1940.27 -0.21 0 -0.55c41.49,0 40.48,59.48 47.54,35.63 0.39,-1.34 -19.93,-38.37 -49.14,-98.3l-5.03 -10.32c-43.54,-89.36 -83.82,-172.02 -131.09,-237.87l-3209.22 -5.94c-22.11,37.18 -45.97,78.91 -69.31,122.87 -36.62,69 -70.24,140.26 -89.44,200.19 -1.42,4.43 -48.06,-8.89 -30.78,-3.36 32.31,10.35 103.54,6.34 175.51,2.29 35.81,-2.02 71.8,-4.06 114.67,-4.36 273.4,-1.99 547.24,-1.33 820.98,-0.68 161.72,0.37 323.45,0.76 485.04,0.61zm-489.71 -973.34l1378.79 0.35 -91.99 -676.47 -1190.02 1.31 -96.78 674.81zm-744.07 -8466.16l-305.55 314.77c13.92,83.87 40.59,132.09 63.5,173.5 0.04,0.08 0.08,0.16 0.12,0.23l0.43 -0.23c74.14,134.03 125.2,226.37 -23.84,569.45 -140.19,322.7 -219,349.15 -385.72,405.09 -40.76,13.68 -89.26,29.96 -150.21,59.77l-2.73 457.75c44.79,21.3 95.6,41.14 147.75,61.51 28.55,11.14 57.54,22.47 76.33,30.1l17.31 7.02c103.63,42.01 146.91,59.54 189.45,110.2 31.26,37.22 41.49,69.3 59,124.29 7.56,23.75 17.5,54.91 37.22,105.34 184.76,472.3 51.81,619.5 -42.25,723.63 -20.74,22.96 -31.36,34.86 328.82,356.7 77.17,-14.09 122.27,-40.81 161.29,-63.95 129.23,-76.61 220.8,-130.89 556.2,11.8 360.04,153.15 371.51,202.58 408.2,361 9.98,43.15 23.31,100.65 69.68,189.42l457.12 -1.17c22.06,-51.84 37.81,-94.92 51.47,-132.3 76.38,-209.05 105.33,-288.2 423.04,-412.45 356.44,-139.39 413.87,-104.54 543.76,-25.69 35.78,21.71 81.39,49.4 168.44,72.92l331.68 -321.32c-12.44,-78.09 -39.24,-123.4 -62.61,-162.91 -76.61,-129.49 -132.48,-223.96 15.68,-564.25 150.88,-346.53 224.3,-364.14 370.93,-399.3 40.27,-9.65 90.5,-21.71 164.49,-64.89l8.64 -466.69c-7.45,-2.63 -14.74,-5.2 -21.87,-7.72 -187.94,-66.33 -277.56,-97.96 -343.15,-146.56 -76.51,-56.66 -96.08,-107.33 -133.46,-204.13 -9.38,-24.29 -20.44,-52.92 -37.1,-91.75 -148.91,-346.98 -117.3,-408.01 -37.04,-562.92 20.75,-40.05 46.54,-89.83 70.92,-166.13l-325.85 -335.75c-65.74,20.83 -109.45,45.9 -146.32,67.04 -139.71,80.13 -218.6,125.36 -551.66,-12.87 -35.41,-14.7 -69.12,-26.29 -97.88,-36.17 -129.38,-44.46 -189.54,-65.16 -271.79,-227.19 -21.19,-41.74 -52.67,-116.44 -81.38,-190.52 -11.55,-29.78 -22.72,-59.69 -32.69,-87.54l-460.53 -5.34c-27,26.85 -36.02,62.44 -45.57,100.16 -35.91,141.88 -75.44,298.01 -403.81,430.91 -363.16,146.98 -423.37,114.6 -572.2,34.55 -42.09,-22.64 -95.5,-51.36 -186.26,-77.41z"/>
  </g>
  <g id="_2198302745600">
   <g>
    <path class="fil2" d="M-24150.47 21008.87l271.78 0c33.23,0 64.77,13.97 94.4,41.91 29.63,27.94 44.45,61.81 44.45,101.6 0,14.82 -5.29,27.52 -15.87,37.89 -10.59,10.37 -22.23,15.45 -35.14,15.45 -17.99,0 -30.27,-4.02 -36.83,-12.07 -6.56,-8.04 -12.91,-23.07 -19.05,-45.08 -5.93,-22.01 -19.26,-33.02 -40.01,-33.02l-258.65 0c-12.49,0 -18.63,4.02 -18.63,11.85 0,4.87 2.75,10.59 8.04,17.36l388.2 494.24c18.63,23.92 27.94,49.74 27.94,76.84 0,31.11 -11.22,58.42 -33.87,81.91 -22.64,23.5 -47.83,35.35 -75.56,35.35l-281.52 0c-37.25,0 -69.85,-14.18 -97.36,-42.55 -27.52,-28.36 -41.28,-59.47 -41.28,-93.34 0,-38.95 18.2,-58.42 54.61,-58.42 13.97,0 26.04,5.08 35.98,15.24 9.95,10.16 14.82,22.01 14.82,35.77 0,11.22 3.81,20.53 11.43,27.94 7.83,7.41 17.36,11.22 29,11.22l260.35 0c11.22,0 16.72,-4.45 16.72,-13.34 0.21,-4.23 -2.33,-9.52 -7.62,-16.08l-387.77 -494.03c-18.42,-23.5 -27.52,-49.32 -27.52,-76.84 0,-32.38 11.64,-60.32 34.93,-84.03 23.07,-23.92 51.22,-35.77 84.03,-35.77zm1175.17 421.64l0 125.73c0,14.18 -5.08,26.25 -15.45,36.62 -10.37,10.37 -22.65,15.45 -36.62,15.45l-368.3 0 0 30.48c0,17.78 7.62,33.02 22.86,45.3l30.48 25.61c16.51,12.91 32.17,19.26 47.2,19.26l267.76 0c13.97,0 26.25,5.08 36.62,15.24 10.37,10.16 15.45,22.44 15.45,36.83 0,13.97 -5.29,26.25 -15.87,36.62 -10.59,10.37 -22.65,15.45 -36.2,15.45l-274.74 0c-18.21,0 -37.26,-3.81 -57.36,-11.43 -19.9,-7.62 -34.72,-15.66 -44.24,-23.92l-46.57 -40.85c-14.39,-11.64 -26.46,-27.73 -36.19,-48.47 -9.74,-20.53 -14.61,-39.58 -14.61,-56.94l0 -238.76c0,-13.55 5.29,-31.96 15.88,-55.03 10.58,-23.08 23.91,-41.07 40,-53.98l43.39 -34.08c28.37,-23.07 60.12,-34.71 94.83,-34.71l146.26 0c36.83,0 71.54,15.24 104.14,45.72l39.16 37.25c28.15,25.19 42.12,62.66 42.12,112.61zm-420.37 -8.04l0 80.43 317.5 0 0 -72.39c0,-19.26 -5.93,-34.08 -17.99,-44.45l-30.48 -26.46c-15.88,-12.91 -30.06,-19.26 -42.33,-19.26l-131.45 0c-16.09,0 -30.9,5.5 -44.24,16.72l-30.48 25.4c-13.76,10.16 -20.53,23.71 -20.53,40.01zm661.67 358.56l0 -492.97c0,-14.4 5.08,-26.88 15.24,-37.26 10.16,-10.58 22.44,-15.87 36.83,-15.87 14.39,0 26.67,5.08 36.83,15.24 10.16,10.16 15.24,22.65 15.24,37.46l0 64.14 84.88 -72.39c35.14,-29.63 69.43,-44.45 103.08,-44.45l76.2 0c42.97,0 79.8,15.24 110.28,45.93 30.69,30.48 45.93,67.31 45.93,110.28l0 27.94c0,14.82 -5.08,27.52 -15.24,37.89 -10.16,10.37 -22.44,15.45 -36.83,15.45 -14.39,0 -26.67,-5.08 -36.83,-15.24 -10.16,-10.16 -15.24,-22.44 -15.24,-36.83l0 -29.21c0,-14.39 -5.08,-26.67 -15.24,-36.83 -10.16,-10.16 -22.44,-15.24 -36.83,-15.24l-67.52 0c-14.61,0 -30.69,7.62 -48.47,22.86l-148.17 128.27 0 290.83c0,14.39 -5.08,26.67 -15.45,36.83 -10.37,10.16 -22.65,15.24 -36.62,15.24 -14.39,0 -26.67,-5.08 -36.83,-15.24 -10.16,-9.95 -15.24,-22.23 -15.24,-36.83zm1083.31 -315.17l0 124.03 69.43 118.75 35.98 -117.9 11.43 -303.74c0.85,-13.97 6.35,-26.25 16.51,-36.62 9.95,-10.37 22.01,-15.45 35.56,-15.45 14.39,0 26.88,5.08 37.25,15.24 10.38,10.16 15.24,22.44 14.82,36.83l-11.43 324.27 -56.3 183.94c-7.83,25.19 -23.92,37.89 -48.05,37.89l-55.67 0c-19.26,0 -34.5,-9.74 -45.72,-29.21l-57.15 -97.79 -56.73 96.73c-12.91,20.11 -28.15,30.27 -45.93,30.27l-54.82 0c-12.06,0 -22.86,-3.6 -32.6,-10.58 -9.73,-6.99 -15.87,-15.24 -18.41,-24.77l-54.4 -190.92 -11.43 -319.83c-0.42,-13.55 4.66,-25.82 15.45,-36.2 10.8,-10.58 23.5,-15.87 37.89,-15.87 13.12,0 24.77,4.87 34.93,14.6 10.16,9.74 15.45,22.23 15.87,37.47l12.28 304.8 33.23 116.84 72.6 -123.83 0 -119.38c0,-14.39 5.08,-26.45 15.45,-36.4 10.37,-9.95 23.07,-15.03 37.89,-15.03 13.97,0 26.25,5.08 36.62,15.03 10.37,10.16 15.45,22.43 15.45,36.83zm660.4 -501.44l54.61 0c14.39,0 26.67,5.08 36.83,15.24 10.16,9.95 15.24,22.22 15.24,36.83l0 44.45c0,14.6 -5.08,27.09 -15.24,37.46 -10.16,10.59 -22.44,15.88 -36.83,15.88l-55.88 0c-14.82,0 -27.3,-5.29 -37.46,-16.09 -10.16,-10.79 -15.03,-22.65 -14.61,-35.98l1.27 -45.72c0,-14.61 5.08,-26.88 15.24,-36.83 10.16,-10.16 22.44,-15.24 36.83,-15.24zm213.15 868.68l-318.35 0c-14.6,0 -26.88,-5.08 -37.04,-15.24 -10.16,-10.16 -15.24,-22.44 -15.24,-36.83 0,-13.97 5.08,-26.25 15.24,-36.62 10.16,-10.37 22.44,-15.45 36.83,-15.45l106.68 0 0 -388.62 -106.26 0c-14.6,0 -26.88,-5.08 -37.25,-15.45 -10.16,-10.37 -15.24,-22.65 -15.24,-36.62 0,-14.39 5.08,-26.88 15.24,-37.47 10.16,-10.58 22.65,-15.87 37.04,-15.87l159.6 0c14.39,0 26.88,5.29 37.04,15.87 10.16,10.38 15.24,22.86 15.24,37.47l0 440.69 104.99 0c14.6,0 27.3,5.08 37.89,15.24 10.58,10.16 15.87,22.44 15.87,36.83 0,14.39 -5.08,26.67 -15.45,36.83 -10.37,10.16 -22.65,15.24 -36.83,15.24zm491.49 -598.17l238.76 0c37.04,0 69.85,11.01 98.42,33.02 28.58,22.22 42.76,43.81 42.76,64.77 0,14.82 -5.29,27.09 -15.87,36.62 -10.38,9.52 -22.02,14.18 -34.93,14.18 -16.51,0 -31.54,-7.41 -45.3,-22.23 -13.54,-14.81 -27.72,-22.22 -42.75,-22.22l-235.38 0c-23.07,0 -34.71,9.52 -34.71,28.36 0,13.13 7.83,23.29 23.71,30.06l276.43 124.46c28.16,12.28 51.23,32.38 69.22,59.9 17.99,27.31 26.88,57.79 26.88,91.23 0,44.66 -15.87,82.55 -47.41,113.45 -31.75,31.12 -67.52,46.57 -107.74,46.57l-210.82 0c-36.41,0 -70.27,-11.01 -101.6,-32.81 -31.12,-21.8 -46.78,-43.18 -46.78,-63.71 0,-13.76 5.08,-25.82 15.24,-36.2 10.16,-10.58 23.28,-15.87 39.37,-15.87 13.12,0 27.31,7.41 42.33,22.22 15.03,14.82 36.83,22.23 65.41,22.23l193.89 0c15.45,0 28.15,-5.93 38.52,-17.57 10.37,-11.85 15.45,-25.4 15.45,-40.64 0,-23.49 -11.43,-40.43 -34.08,-50.8l-279.61 -125.94c-26.88,-12.07 -47.62,-29.42 -62.02,-52.07 -14.6,-22.65 -21.8,-45.93 -21.8,-69.43 0,-37.25 12.91,-69.42 38.74,-96.73 25.82,-27.3 57.78,-40.85 95.67,-40.85zm1495 -173.78l0 246.17 45.93 -36.62c29,-23.92 58.85,-35.77 89.96,-35.77l95.46 0c35.14,0 66.25,11.85 93.56,35.77l49.53 42.76c13.76,12.06 24.98,29.21 33.87,51.43 8.89,22.23 13.33,44.03 13.33,65.62l0 210.18c0,19.05 -4.23,38.95 -12.49,60.12 -8.25,20.95 -17.78,36.4 -28.36,46.35l-45.3 42.55c-11.64,11.22 -28.15,21.16 -49.74,30.05 -21.38,8.89 -39.58,13.34 -54.4,13.34l-89.32 0c-43.39,0 -90.81,-24.13 -142.03,-72.39l0 20.32c0,14.6 -5.08,26.88 -15.24,36.83 -10.16,10.16 -22.44,15.24 -36.83,15.24 -14.39,0 -26.67,-5.08 -36.83,-15.24 -10.16,-10.16 -15.24,-22.44 -15.24,-36.83l0 -720.09c0,-14.39 5.08,-26.67 15.45,-36.83 10.37,-10.16 22.65,-15.24 36.62,-15.24 14.39,0 26.67,5.08 36.83,15.24 10.16,10.16 15.24,22.65 15.24,37.04zm223.31 279.19l-71.97 0c-17.35,0 -30.69,4.02 -39.79,11.85l-93.56 80.01c-12.06,10.8 -17.99,26.88 -17.99,48.26l0 117.27c0,17.14 6.77,31.53 20.53,42.96l83.61 70.28c12.07,11.22 24.55,16.72 37.89,16.72l84.88 0c12.06,0 22.43,-3.81 31.11,-11.22l41.49 -37.04c11.22,-8.26 16.72,-19.9 16.72,-35.14l0 -218.65c0,-17.36 -5.5,-30.48 -16.72,-39.58l-37.89 -31.54c-11.43,-9.52 -24.34,-14.18 -38.31,-14.18zm858.52 492.76l-315.81 0c-14.6,0 -26.88,-5.29 -37.04,-15.88 -10.16,-10.58 -15.24,-23.07 -15.24,-37.46 0,-13.97 5.08,-26.25 15.24,-36.62 10.16,-10.37 22.44,-15.45 36.83,-15.45l104.14 0 0 -614.68 -104.56 0c-14.4,0 -26.46,-5.08 -36.62,-15.24 -9.95,-10.16 -15.03,-22.44 -15.03,-36.83 0,-14.39 5.08,-26.67 15.03,-36.83 10.16,-10.16 22.44,-15.24 36.83,-15.24l157.9 0c13.97,0 26.25,5.08 36.41,15.45 10.37,10.37 15.45,22.65 15.45,36.62l0 666.75 106.26 0c14.18,0 26.46,5.08 36.83,15.45 10.37,10.37 15.66,22.65 15.66,36.62 0,14.39 -5.08,26.88 -15.24,37.46 -10.16,10.59 -22.44,15.88 -37.04,15.88zm870.16 -409.15l0 220.13c0,46.57 -22.01,89.75 -66.04,129.54 -44.03,39.58 -89.32,59.48 -136.1,59.48l-122.13 0c-47.63,0 -92.92,-20.11 -136.32,-60.54 -43.39,-40.21 -65.19,-82.97 -65.19,-128.48l0 -220.13c0,-45.51 21.17,-88.27 63.5,-128.48 42.33,-40.43 88.48,-60.54 138.01,-60.54l122.13 0c46.78,-0.85 92.07,18.63 136.1,58.21 44.03,39.79 66.04,83.39 66.04,130.81zm-420.37 4.44l0 210.61c0,19.05 6.77,34.08 20.53,45.3l38.95 33.44c8.68,7.41 20.95,11.22 36.62,11.22l120.86 0c17.78,0 33.87,-6.35 48.47,-19.26l31.54 -27.94c12.91,-9.74 19.26,-23.71 19.26,-41.49l0 -210.61c0,-20.74 -6.35,-35.98 -19.26,-45.93l-36.62 -29.21c-12.28,-10.37 -26.88,-15.45 -43.39,-15.45l-107.74 0c-23.71,0 -41.91,5.5 -54.61,16.72l-35.35 30.48c-12.91,10.58 -19.26,24.77 -19.26,42.12zm990.18 628.23l-225.64 0c-14.39,0 -26.67,-5.08 -36.83,-15.03 -10.16,-9.95 -15.24,-22.43 -15.24,-37.25 0,-14.61 5.08,-26.88 15.24,-36.83 9.95,-9.95 22.23,-15.03 36.62,-15.03l225 0c13.55,0 26.46,-5.08 38.31,-15.45l35.14 -30.27c12.06,-9.1 17.99,-21.17 17.99,-35.98l0 -158.33c-48.68,49.11 -96.1,73.66 -142.24,73.66l-79.59 0c-41.27,0 -78.31,-14.18 -111.33,-42.76l-38.95 -34.5c-12.7,-10.79 -23.71,-26.46 -33.02,-46.99 -9.31,-20.74 -13.97,-40.85 -13.97,-60.75l0 -171.87c0,-24.34 4.66,-47.41 13.97,-69.43 9.31,-21.8 20.32,-38.1 33.23,-48.89l42.76 -36.41c30.48,-26.46 66.46,-39.58 107.74,-39.58l75.14 0c40.85,0 78.1,14.39 111.55,43.39l35.98 30.27 -1.27 -20.74c0,-14.4 5.08,-26.67 15.45,-37.26 10.37,-10.37 22.65,-15.66 36.62,-15.66 14.39,0 26.88,5.08 37.47,15.24 10.58,10.16 15.87,22.44 15.87,36.83l0 584.2c0,44.24 -17.78,82.13 -53.34,113.45l-42.12 36.62c-10.8,9.53 -26.04,17.78 -45.51,24.77 -19.68,6.98 -38.1,10.58 -55.03,10.58zm-60.12 -717.55l-69.85 0c-15.24,0 -29.84,5.93 -43.81,17.99l-31.96 26.46c-12.49,10.37 -18.63,24.34 -18.63,42.12l0 172.93c0,13.97 6.77,27.1 20.32,39.58l34.08 30.27c10.58,9.1 22.01,13.55 33.87,13.55l84.66 0c12.28,0 26.04,-6.14 40.85,-18.63l82.13 -70.06c12.7,-11.22 19.05,-24.76 19.05,-40.85l0 -78.32c0,-18.84 -7.2,-34.29 -21.59,-46.14l-84.67 -72.18c-11.85,-11.22 -26.67,-16.72 -44.45,-16.72zm1024.47 84.88l0 220.13c0,46.57 -22.01,89.75 -66.04,129.54 -44.03,39.58 -89.32,59.48 -136.1,59.48l-122.13 0c-47.63,0 -92.92,-20.11 -136.32,-60.54 -43.39,-40.21 -65.19,-82.97 -65.19,-128.48l0 -220.13c0,-45.51 21.17,-88.27 63.5,-128.48 42.33,-40.43 88.48,-60.54 138.01,-60.54l122.13 0c46.78,-0.85 92.07,18.63 136.1,58.21 44.03,39.79 66.04,83.39 66.04,130.81zm-420.37 4.44l0 210.61c0,19.05 6.77,34.08 20.53,45.3l38.95 33.44c8.68,7.41 20.95,11.22 36.62,11.22l120.86 0c17.78,0 33.87,-6.35 48.47,-19.26l31.54 -27.94c12.91,-9.74 19.26,-23.71 19.26,-41.49l0 -210.61c0,-20.74 -6.35,-35.98 -19.26,-45.93l-36.62 -29.21c-12.28,-10.37 -26.88,-15.45 -43.39,-15.45l-107.74 0c-23.71,0 -41.91,5.5 -54.61,16.72l-35.35 30.48c-12.91,10.58 -19.26,24.77 -19.26,42.12zm977.9 37.47l0 124.03 69.43 118.75 35.98 -117.9 11.43 -303.74c0.85,-13.97 6.35,-26.25 16.51,-36.62 9.95,-10.37 22.01,-15.45 35.56,-15.45 14.39,0 26.88,5.08 37.25,15.24 10.38,10.16 15.24,22.44 14.82,36.83l-11.43 324.27 -56.3 183.94c-7.83,25.19 -23.92,37.89 -48.05,37.89l-55.67 0c-19.26,0 -34.5,-9.74 -45.72,-29.21l-57.15 -97.79 -56.73 96.73c-12.91,20.11 -28.15,30.27 -45.93,30.27l-54.82 0c-12.06,0 -22.86,-3.6 -32.6,-10.58 -9.73,-6.99 -15.87,-15.24 -18.41,-24.77l-54.4 -190.92 -11.43 -319.83c-0.42,-13.55 4.66,-25.82 15.45,-36.2 10.8,-10.58 23.5,-15.87 37.89,-15.87 13.12,0 24.77,4.87 34.93,14.6 10.16,9.74 15.45,22.23 15.87,37.47l12.28 304.8 33.23 116.84 72.6 -123.83 0 -119.38c0,-14.39 5.08,-26.45 15.45,-36.4 10.37,-9.95 23.07,-15.03 37.89,-15.03 13.97,0 26.25,5.08 36.62,15.03 10.37,10.16 15.45,22.43 15.45,36.83zm977.9 -78.32l-280.88 634.79c-9.53,22.86 -26.04,34.29 -49.53,34.29l-144.57 0c-14.39,0 -26.67,-5.08 -36.83,-15.03 -10.16,-9.95 -15.24,-22.43 -15.24,-37.25 0,-14.61 5.08,-26.88 15.24,-36.83 10.16,-9.95 22.44,-15.03 36.83,-15.03l111.76 0 72.6 -165.1 -26.88 0c-23.49,0 -40.43,-12.28 -50.8,-36.62l-156.21 -363.22 0 -100.54c0,-14.39 4.87,-26.67 14.82,-36.83 9.95,-10.16 22.01,-15.24 35.98,-15.24 14.61,0 27.09,5.08 37.47,15.24 10.58,9.95 15.87,22.22 15.87,36.83l0.64 77.26 136.52 317.71 37.47 0 140.54 -316.23 -0.21 -80.01c0,-13.55 5.29,-25.61 15.88,-36.2 10.58,-10.58 23.07,-15.87 37.46,-15.87 13.97,0 26.25,5.08 36.62,15.45 10.37,10.37 15.45,22.65 15.45,36.62l0 101.81zm1323.34 78.32l0 124.03 69.43 118.75 35.98 -117.9 11.43 -303.74c0.85,-13.97 6.35,-26.25 16.51,-36.62 9.95,-10.37 22.01,-15.45 35.56,-15.45 14.39,0 26.88,5.08 37.25,15.24 10.38,10.16 15.24,22.44 14.82,36.83l-11.43 324.27 -56.3 183.94c-7.83,25.19 -23.92,37.89 -48.05,37.89l-55.67 0c-19.26,0 -34.5,-9.74 -45.72,-29.21l-57.15 -97.79 -56.73 96.73c-12.91,20.11 -28.15,30.27 -45.93,30.27l-54.82 0c-12.06,0 -22.86,-3.6 -32.6,-10.58 -9.73,-6.99 -15.87,-15.24 -18.41,-24.77l-54.4 -190.92 -11.43 -319.83c-0.42,-13.55 4.66,-25.82 15.45,-36.2 10.8,-10.58 23.5,-15.87 37.89,-15.87 13.12,0 24.77,4.87 34.93,14.6 10.16,9.74 15.45,22.23 15.87,37.47l12.28 304.8 33.23 116.84 72.6 -123.83 0 -119.38c0,-14.39 5.08,-26.45 15.45,-36.4 10.37,-9.95 23.07,-15.03 37.89,-15.03 13.97,0 26.25,5.08 36.62,15.03 10.37,10.16 15.45,22.43 15.45,36.83zm1584.96 367.24l-104.14 0c-42.97,0 -80.01,-15.24 -110.91,-45.93 -31.12,-30.48 -46.57,-67.31 -46.57,-110.28l0 -337.82 -53.34 0c-14.39,0 -26.67,-4.87 -36.83,-14.82 -10.16,-9.95 -15.24,-22.43 -15.24,-37.25 0,-14.39 5.08,-26.67 15.03,-36.83 9.95,-10.16 22.22,-15.24 36.41,-15.24l53.97 0 0 -128.06c0,-14.6 5.08,-26.88 15.24,-37.04 10.16,-10.16 22.44,-15.24 36.83,-15.24 13.55,0 25.82,5.08 36.2,15.45 10.58,10.37 15.87,22.65 15.87,36.83l0 128.06 210.61 0c13.97,0 26.25,5.08 36.62,15.45 10.37,10.37 15.66,22.65 15.66,36.62 0,14.39 -5.08,26.67 -15.45,36.83 -10.37,10.16 -22.65,15.24 -36.62,15.24l-210.82 0 0 337.82c0,13.97 5.29,26.25 15.88,36.62 10.37,10.37 22.86,15.45 37.46,15.45l101.39 0c27.73,0 46.14,-15.03 55.24,-45.09 9.11,-30.05 26.67,-45.08 52.71,-45.08 15.45,0 27.94,5.08 37.68,15.24 9.73,10.16 14.6,22.86 14.6,38.1 0,31.54 -14.82,62.86 -44.24,94.19 -29.63,31.12 -67.31,46.78 -113.24,46.78zm400.05 -52.07l0 -492.97c0,-14.4 5.08,-26.88 15.24,-37.26 10.16,-10.58 22.44,-15.87 36.83,-15.87 14.39,0 26.67,5.08 36.83,15.24 10.16,10.16 15.24,22.65 15.24,37.46l0 64.14 84.88 -72.39c35.14,-29.63 69.43,-44.45 103.08,-44.45l76.2 0c42.97,0 79.8,15.24 110.28,45.93 30.69,30.48 45.93,67.31 45.93,110.28l0 27.94c0,14.82 -5.08,27.52 -15.24,37.89 -10.16,10.37 -22.44,15.45 -36.83,15.45 -14.39,0 -26.67,-5.08 -36.83,-15.24 -10.16,-10.16 -15.24,-22.44 -15.24,-36.83l0 -29.21c0,-14.39 -5.08,-26.67 -15.24,-36.83 -10.16,-10.16 -22.44,-15.24 -36.83,-15.24l-67.52 0c-14.61,0 -30.69,7.62 -48.47,22.86l-148.17 128.27 0 290.83c0,14.39 -5.08,26.67 -15.45,36.83 -10.37,10.16 -22.65,15.24 -36.62,15.24 -14.39,0 -26.67,-5.08 -36.83,-15.24 -10.16,-9.95 -15.24,-22.23 -15.24,-36.83zm923.93 -323.85l204.68 0c11.22,0 27.51,2.54 48.47,7.62l-2.33 -73.66c0,-14.61 -5.08,-26.88 -15.24,-36.83 -10.16,-10.16 -22.65,-15.24 -37.04,-15.24l-198.97 0c-13.97,0 -26.24,-5.08 -36.62,-15.45 -10.37,-10.37 -15.66,-22.65 -15.66,-36.62 0,-14.39 5.08,-26.67 15.24,-36.83 10.16,-10.16 22.44,-15.24 37.04,-15.24l198.55 0c43.18,0 80.01,15.03 110.49,45.3 30.48,30.05 46.35,67.09 47.62,110.91l12.7 389.89c0,14.39 -5.08,26.67 -15.45,36.83 -10.37,10.16 -22.65,15.24 -36.62,15.24 -14.82,0 -27.52,-5.08 -37.89,-15.24 -10.37,-10.16 -15.45,-22.44 -15.45,-36.83l-88.05 52.07 -176.11 0c-43.81,0 -81.07,-15.24 -111.55,-45.93 -30.69,-30.48 -45.93,-67.74 -45.93,-111.55l0 -60.96c0,-43.39 15.45,-80.43 46.36,-111.34 30.9,-30.69 68.15,-46.14 111.76,-46.14zm259.5 203.2l-2.96 -44.24c-0.43,-15.03 -5.72,-27.3 -15.46,-37.25 -9.94,-9.95 -22.22,-15.03 -36.61,-15.03l-205.11 0c-14.39,0 -26.67,5.08 -36.83,15.24 -10.16,10.16 -15.24,22.44 -15.24,36.83l0 58.42c0,13.97 5.08,26.25 15.45,36.62 10.37,10.37 22.65,15.45 36.62,15.45l146.9 0 113.24 -66.04zm350.73 120.65l0 -718.82c0,-14.82 5.08,-27.52 15.24,-37.89 10.16,-10.37 22.44,-15.45 36.83,-15.45 14.39,0 26.67,5.08 36.83,15.45 10.16,10.37 15.24,23.07 15.24,37.89l0 425.45 282.15 -237.91c12.07,-9.95 24.98,-14.82 39.16,-14.82 14.82,0 27.31,5.29 37.25,15.66 9.95,10.59 14.82,22.86 14.82,37.26 0,15.24 -5.5,27.3 -16.72,36.4l-220.77 185 272.2 236.43c10.8,8.68 16.09,20.11 16.09,34.08 0,13.76 -4.87,26.03 -14.82,36.83 -9.94,11.01 -22.22,16.51 -36.61,16.51 -14.4,0 -27.31,-4.66 -38.53,-14.18l-279.61 -241.51 -54.61 45.72 0 157.9c0,14.39 -5.08,26.67 -15.24,36.83 -10.16,10.16 -22.44,15.24 -36.83,15.24 -14.39,0 -26.67,-5.08 -36.83,-15.24 -10.16,-10.16 -15.24,-22.44 -15.24,-36.83zm1242.06 52.07l-222.67 0c-39.16,0 -72.6,-11.85 -100.33,-35.35l-101.18 -88.05c-32.17,-26.88 -48.26,-63.29 -48.26,-109.01l0 -135.89c-1.69,-44.03 16.51,-82.55 54.4,-115.15l91.02 -78.74c29.21,-23.92 60.53,-35.98 93.98,-35.98l233.25 0c14.4,0 26.67,5.08 36.62,15.24 10.16,10.16 15.24,22.44 15.24,36.83 0,14.82 -5.08,27.3 -15.24,37.25 -9.95,9.95 -22.22,14.82 -36.62,14.82l-223.31 0c-13.97,0 -27.3,5.5 -40,16.72l-83.61 71.33c-13.55,11.43 -20.32,27.1 -20.32,46.36l0 127.21c0,13.55 5.29,25.19 16.09,34.71l91.86 78.11c11.43,10.37 26.88,15.45 45.72,15.45l213.36 0c13.97,0 26.25,5.08 36.62,15.24 10.37,10.16 15.45,22.44 15.45,36.83 0,14.39 -5.08,26.67 -15.24,36.83 -10.16,10.16 -22.44,15.24 -36.83,15.24zm501.65 -868.68l54.61 0c14.39,0 26.67,5.08 36.83,15.24 10.16,9.95 15.24,22.22 15.24,36.83l0 44.45c0,14.6 -5.08,27.09 -15.24,37.46 -10.16,10.59 -22.44,15.88 -36.83,15.88l-55.88 0c-14.82,0 -27.3,-5.29 -37.46,-16.09 -10.16,-10.79 -15.03,-22.65 -14.61,-35.98l1.27 -45.72c0,-14.61 5.08,-26.88 15.24,-36.83 10.16,-10.16 22.44,-15.24 36.83,-15.24zm213.15 868.68l-318.35 0c-14.6,0 -26.88,-5.08 -37.04,-15.24 -10.16,-10.16 -15.24,-22.44 -15.24,-36.83 0,-13.97 5.08,-26.25 15.24,-36.62 10.16,-10.37 22.44,-15.45 36.83,-15.45l106.68 0 0 -388.62 -106.26 0c-14.6,0 -26.88,-5.08 -37.25,-15.45 -10.16,-10.37 -15.24,-22.65 -15.24,-36.62 0,-14.39 5.08,-26.88 15.24,-37.47 10.16,-10.58 22.65,-15.87 37.04,-15.87l159.6 0c14.39,0 26.88,5.29 37.04,15.87 10.16,10.38 15.24,22.86 15.24,37.47l0 440.69 104.99 0c14.6,0 27.3,5.08 37.89,15.24 10.58,10.16 15.87,22.44 15.87,36.83 0,14.39 -5.08,26.67 -15.45,36.83 -10.37,10.16 -22.65,15.24 -36.83,15.24zm870.16 -402.59l0 125.73c0,14.18 -5.08,26.25 -15.45,36.62 -10.37,10.37 -22.65,15.45 -36.62,15.45l-368.3 0 0 30.48c0,17.78 7.62,33.02 22.86,45.3l30.48 25.61c16.51,12.91 32.17,19.26 47.2,19.26l267.76 0c13.97,0 26.25,5.08 36.62,15.24 10.37,10.16 15.45,22.44 15.45,36.83 0,13.97 -5.29,26.25 -15.87,36.62 -10.59,10.37 -22.65,15.45 -36.2,15.45l-274.74 0c-18.21,0 -37.26,-3.81 -57.36,-11.43 -19.9,-7.62 -34.72,-15.66 -44.24,-23.92l-46.57 -40.85c-14.39,-11.64 -26.46,-27.73 -36.19,-48.47 -9.74,-20.53 -14.61,-39.58 -14.61,-56.94l0 -238.76c0,-13.55 5.29,-31.96 15.88,-55.03 10.58,-23.08 23.91,-41.07 40,-53.98l43.39 -34.08c28.37,-23.07 60.12,-34.71 94.83,-34.71l146.26 0c36.83,0 71.54,15.24 104.14,45.72l39.16 37.25c28.15,25.19 42.12,62.66 42.12,112.61zm-420.37 -8.04l0 80.43 317.5 0 0 -72.39c0,-19.26 -5.93,-34.08 -17.99,-44.45l-30.48 -26.46c-15.88,-12.91 -30.06,-19.26 -42.33,-19.26l-131.45 0c-16.09,0 -30.9,5.5 -44.24,16.72l-30.48 25.4c-13.76,10.16 -20.53,23.71 -20.53,40.01zm1535.43 350.94l0 231.14c0,14.82 -5.08,27.52 -15.24,37.89 -10.16,10.37 -22.44,15.45 -36.83,15.45 -14.39,0 -26.88,-5.08 -37.46,-15.45 -10.59,-10.37 -15.88,-22.86 -15.88,-37.68l0 -740.83c0,-13.97 5.08,-26.04 15.45,-36.41 10.37,-10.37 23.07,-15.45 37.89,-15.45 13.97,0 26.25,5.08 36.62,15.24 10.37,10.16 15.45,22.01 15.45,35.77l0 32.81c50.38,-55.88 100.33,-83.82 149.44,-83.82l24.13 0c36.83,0 70.69,13.55 101.81,40.85l86.78 74.72c37.89,33.02 56.94,74.93 56.94,125.73l0 161.92c0,51.23 -20.53,94.2 -61.38,129.33l-84.88 73.03c-28.15,25.61 -63.71,38.31 -106.68,38.31l-22.86 0c-40.64,0 -74.93,-13.97 -103.08,-42.12l-40.22 -40.43zm146.9 -22.86l26.67 0c12.91,0 26.46,-6.35 41.06,-19.05l81.07 -71.12c13.76,-10.8 20.53,-25.4 20.53,-43.82l0 -167.42c0,-16.51 -7.62,-31.12 -22.86,-44.03l-87.42 -74.72c-9.95,-8.68 -20.74,-12.91 -32.38,-12.91l-30.27 0c-11.64,0 -26.67,9.52 -45.3,28.57l-77.47 76.63c-13.76,13.76 -20.53,29 -20.53,45.72l0 132.5c0,15.88 7.62,31.54 22.86,46.78l75.14 74.93c18.63,18.63 34.93,27.94 48.9,27.94zm513.5 30.48l0 -492.97c0,-14.4 5.08,-26.88 15.24,-37.26 10.16,-10.58 22.44,-15.87 36.83,-15.87 14.39,0 26.67,5.08 36.83,15.24 10.16,10.16 15.24,22.65 15.24,37.46l0 64.14 84.88 -72.39c35.14,-29.63 69.43,-44.45 103.08,-44.45l76.2 0c42.97,0 79.8,15.24 110.28,45.93 30.69,30.48 45.93,67.31 45.93,110.28l0 27.94c0,14.82 -5.08,27.52 -15.24,37.89 -10.16,10.37 -22.44,15.45 -36.83,15.45 -14.39,0 -26.67,-5.08 -36.83,-15.24 -10.16,-10.16 -15.24,-22.44 -15.24,-36.83l0 -29.21c0,-14.39 -5.08,-26.67 -15.24,-36.83 -10.16,-10.16 -22.44,-15.24 -36.83,-15.24l-67.52 0c-14.61,0 -30.69,7.62 -48.47,22.86l-148.17 128.27 0 290.83c0,14.39 -5.08,26.67 -15.45,36.83 -10.37,10.16 -22.65,15.24 -36.62,15.24 -14.39,0 -26.67,-5.08 -36.83,-15.24 -10.16,-9.95 -15.24,-22.23 -15.24,-36.83zm923.93 -323.85l204.68 0c11.22,0 27.51,2.54 48.47,7.62l-2.33 -73.66c0,-14.61 -5.08,-26.88 -15.24,-36.83 -10.16,-10.16 -22.65,-15.24 -37.04,-15.24l-198.97 0c-13.97,0 -26.24,-5.08 -36.62,-15.45 -10.37,-10.37 -15.66,-22.65 -15.66,-36.62 0,-14.39 5.08,-26.67 15.24,-36.83 10.16,-10.16 22.44,-15.24 37.04,-15.24l198.55 0c43.18,0 80.01,15.03 110.49,45.3 30.48,30.05 46.35,67.09 47.62,110.91l12.7 389.89c0,14.39 -5.08,26.67 -15.45,36.83 -10.37,10.16 -22.65,15.24 -36.62,15.24 -14.82,0 -27.52,-5.08 -37.89,-15.24 -10.37,-10.16 -15.45,-22.44 -15.45,-36.83l-88.05 52.07 -176.11 0c-43.81,0 -81.07,-15.24 -111.55,-45.93 -30.69,-30.48 -45.93,-67.74 -45.93,-111.55l0 -60.96c0,-43.39 15.45,-80.43 46.36,-111.34 30.9,-30.69 68.15,-46.14 111.76,-46.14zm259.5 203.2l-2.96 -44.24c-0.43,-15.03 -5.72,-27.3 -15.46,-37.25 -9.94,-9.95 -22.22,-15.03 -36.61,-15.03l-205.11 0c-14.39,0 -26.67,5.08 -36.83,15.24 -10.16,10.16 -15.24,22.44 -15.24,36.83l0 58.42c0,13.97 5.08,26.25 15.45,36.62 10.37,10.37 22.65,15.45 36.62,15.45l146.9 0 113.24 -66.04z"/>
    <path id="_1_0" class="fil1" d="M-24150.47 20867.76l271.78 0c70.17,0 133.96,26.84 190.86,80.49 28.72,27.08 50.69,57.98 65.86,92.67 15.49,35.4 23.24,72.58 23.24,111.46 0,53.79 -19.45,100.12 -58.31,138.21 -17.72,17.35 -37.4,30.75 -59.15,40.27 -24.32,10.68 -49.19,15.97 -74.66,15.97 -9.79,0 -19.31,-0.57 -28.57,-1.71l162.43 206.79c2.96,3.77 5.7,7.64 8.22,11.6 2.27,3.2 4.46,6.43 6.58,9.68l0 -160.46c0,-18.47 3.36,-39.39 10.04,-62.56 0.05,-0.17 0.1,-0.34 0.15,-0.52l-0.15 -0.04c4.54,-15.72 10.9,-32.55 19.07,-50.34 9.5,-20.74 20.46,-39.47 32.81,-56.15 13.98,-18.86 29.6,-35.23 46.88,-49.09 0.4,-0.32 0.81,-0.63 1.22,-0.95l-0.12 -0.15 43.39 -34.08c2.35,-1.84 4.74,-3.59 7.16,-5.26 23.82,-18.03 49.38,-32.08 76.55,-42.07l-0.07 -0.18c31.83,-11.65 64.64,-17.52 98.28,-17.52l146.26 0c73.26,0 139.95,28.11 200.05,84.3 0.29,0.27 0.57,0.55 0.85,0.82l0.25 -0.26 39.16 37.25c1.75,1.66 3.44,3.36 5.08,5.08 15.88,15.53 29.47,32.82 40.76,51.86 3.28,-45.42 21.42,-85.46 54.4,-119.62l-0.01 -0.01c18.46,-19.22 39.34,-33.88 62.58,-43.87 24.04,-10.37 49.25,-15.55 75.67,-15.55 41.37,0 78.07,11.36 110.05,34.06 7.78,-4.23 15.56,-8.02 23.33,-11.37 35.06,-15.11 70.59,-22.69 106.65,-22.69l76.2 0c39.85,0 77.86,7.49 113.92,22.51 35.37,14.71 67.35,36.41 95.86,65.03 16.93,16.87 31.44,34.95 43.52,54.23 2.16,-7.82 4.86,-15.53 8.09,-23.11 10,-23.42 24.6,-44.57 43.85,-63.1 0.3,-0.29 0.61,-0.57 0.91,-0.85 18.04,-17.23 38.16,-30.51 60.21,-39.71 23.85,-9.98 48.67,-15 74.33,-15 24.99,0 49.2,4.91 72.59,14.67 21.91,9.13 41.89,22.35 59.9,39.62 35.91,34.43 55.43,76.84 58.52,127.21 10.21,-1.62 20.62,-2.43 31.24,-2.43 9.55,0 19.09,0.77 28.6,2.29 1.81,-23.16 7.35,-45.11 16.66,-65.75 9.25,-20.52 22.18,-39.43 38.75,-56.6l-0.01 -0.01c17.67,-18.42 38.47,-32.77 62.06,-42.98 24.64,-10.69 49.71,-16.02 74.92,-16.02 52.21,0 97.8,18.68 135.92,56.03 19.22,18.81 33.68,40.44 43.43,64.78 9.67,24.14 14.05,49.58 13.28,76.23 -0.01,0.37 -0.03,0.73 -0.04,1.1l0.04 0 -11.43 324.27c-0.52,14.72 -3.29,28.83 -7.95,42.01l-54.41 177.76c-0.1,0.34 -0.21,0.67 -0.32,1l0.32 0.1c-12.58,40.44 -34.4,72.91 -65.33,97.29 -5.32,4.18 -10.86,7.91 -16.55,11.21 -30,19.06 -63.6,28.61 -100.67,28.61l-55.67 0c-36.39,0 -70.21,-9.97 -101.4,-29.9 -0.63,-0.4 -1.26,-0.81 -1.88,-1.22 -31.47,20.71 -65.51,31.12 -102.25,31.12l-54.82 0c-20.51,0 -40.76,-3.33 -60.72,-9.84 -19.85,-6.47 -37.81,-15.59 -54.01,-27.2 -16.2,-11.61 -30.46,-25.73 -42.77,-42.3 -13.28,-17.86 -22.92,-37.37 -28.92,-58.59l-0.19 0.05 -54.4 -190.92c-4.14,-14.56 -5.82,-29.23 -5.32,-43.59l-2.22 -62.34c-4.43,5.53 -9.21,10.92 -14.35,16.16 -18.49,18.89 -39.55,33.2 -63.13,43.03 -23.76,9.94 -48.45,14.86 -74.02,14.86 -53.33,0 -98.89,-18.87 -136.6,-56.58 -14.54,-14.54 -26.51,-31.28 -35.88,-50.2l-54.71 47.36 0 226.92c0,25.62 -4.93,50.28 -14.86,74.02 -9.83,23.59 -24.19,44.66 -43.03,63.13 -18.44,18.05 -39,31.8 -61.59,41.19 -23.78,9.91 -48.4,14.84 -73.7,14.84 -53.33,0 -98.89,-18.87 -136.6,-56.58 -4.27,-4.27 -8.2,-8.74 -11.81,-13.39 -9.48,-11.32 -17.55,-23.64 -24.19,-36.95 -9.4,18.17 -22.06,35.08 -37.97,50.68 -18.22,17.84 -38.42,31.43 -60.54,40.82 -24.23,10.32 -49.04,15.42 -74.33,15.42l-274.74 0c-34.86,0 -70.4,-6.94 -106.97,-20.8 -0.16,-0.06 -0.32,-0.13 -0.48,-0.19l-0.07 0.19c-15.09,-5.77 -29.3,-12.28 -42.5,-19.41 -16.29,-8.81 -30.86,-18.79 -43.63,-29.87 -1.16,-1 -2.29,-2.03 -3.41,-3.06l-39.43 -34.58c-17,-13.77 -31.85,-29.12 -44.52,-46.07 -3.21,-4.3 -6.13,-8.72 -8.77,-13.25 -5.49,-8.29 -10.63,-17 -15.42,-26.12 -2.89,10.8 -6.52,21.49 -10.88,32.07 -12.54,30.39 -30.58,57.8 -54.1,82.19 -23.2,24.08 -49.17,42.88 -77.81,56.28 -32.18,15.04 -65.25,22.62 -99.17,22.62l-281.52 0c-37.59,0 -73.85,-7.6 -108.6,-22.79 -33.22,-14.51 -63.15,-35.45 -89.63,-62.75 -25.78,-26.57 -45.48,-55.24 -59.07,-85.95 -14.96,-33.84 -22.45,-69.01 -22.45,-105.51 0,-56.27 17.24,-102.86 51.68,-139.73 4.54,-4.88 9.35,-9.36 14.38,-13.45 35.03,-30.88 78.25,-46.35 129.66,-46.35 8.24,0 16.3,0.47 24.19,1.4l-162.07 -206.48c-2.86,-3.64 -5.51,-7.38 -7.96,-11.21 -14.53,-20.43 -25.91,-42.22 -34.16,-65.25 -0.02,-0.06 -0.04,-0.12 -0.06,-0.17l-0.49 0.17c-10.13,-28.31 -15.17,-57.53 -15.17,-87.47 0,-34.53 6.59,-67.63 19.75,-99.29 12.53,-30.12 30.83,-57.54 54.88,-82.29l-0.01 -0.01c24.91,-25.82 53.14,-45.41 84.56,-58.78 32.19,-13.7 65.88,-20.54 100.89,-20.54zm0 141.11l271.78 0c33.23,0 64.77,13.97 94.4,41.91 29.63,27.94 44.45,61.81 44.45,101.6 0,14.82 -5.29,27.52 -15.87,37.89 -10.59,10.37 -22.23,15.45 -35.14,15.45 -17.99,0 -30.27,-4.02 -36.83,-12.07 -6.56,-8.04 -12.91,-23.07 -19.05,-45.08 -5.93,-22.01 -19.26,-33.02 -40.01,-33.02l-258.65 0c-12.49,0 -18.63,4.02 -18.63,11.85 0,4.87 2.75,10.59 8.04,17.36l388.2 494.24c18.63,23.92 27.94,49.74 27.94,76.84 0,31.11 -11.22,58.42 -33.87,81.91 -22.64,23.5 -47.83,35.35 -75.56,35.35l-281.52 0c-37.25,0 -69.85,-14.18 -97.36,-42.55 -27.52,-28.36 -41.28,-59.47 -41.28,-93.34 0,-38.95 18.2,-58.42 54.61,-58.42 13.97,0 26.04,5.08 35.98,15.24 9.95,10.16 14.82,22.01 14.82,35.77 0,11.22 3.81,20.53 11.43,27.94 7.83,7.41 17.36,11.22 29,11.22l260.35 0c11.22,0 16.72,-4.45 16.72,-13.34 0.21,-4.23 -2.33,-9.52 -7.62,-16.08l-387.77 -494.03c-18.42,-23.5 -27.52,-49.32 -27.52,-76.84 0,-32.38 11.64,-60.32 34.93,-84.03 23.07,-23.92 51.22,-35.77 84.03,-35.77zm1175.17 421.64l0 125.73c0,14.18 -5.08,26.25 -15.45,36.62 -10.37,10.37 -22.65,15.45 -36.62,15.45l-368.3 0 0 30.48c0,17.78 7.62,33.02 22.86,45.3l30.48 25.61c16.51,12.91 32.17,19.26 47.2,19.26l267.76 0c13.97,0 26.25,5.08 36.62,15.24 10.37,10.16 15.45,22.44 15.45,36.83 0,13.97 -5.29,26.25 -15.87,36.62 -10.59,10.37 -22.65,15.45 -36.2,15.45l-274.74 0c-18.21,0 -37.26,-3.81 -57.36,-11.43 -19.9,-7.62 -34.72,-15.66 -44.24,-23.92l-46.57 -40.85c-14.39,-11.64 -26.46,-27.73 -36.19,-48.47 -9.74,-20.53 -14.61,-39.58 -14.61,-56.94l0 -238.76c0,-13.55 5.29,-31.96 15.88,-55.03 10.58,-23.08 23.91,-41.07 40,-53.98l43.39 -34.08c28.37,-23.07 60.12,-34.71 94.83,-34.71l146.26 0c36.83,0 71.54,15.24 104.14,45.72l39.16 37.25c28.15,25.19 42.12,62.66 42.12,112.61zm-420.37 -8.04l0 80.43 317.5 0 0 -72.39c0,-19.26 -5.93,-34.08 -17.99,-44.45l-30.48 -26.46c-15.88,-12.91 -30.06,-19.26 -42.33,-19.26l-131.45 0c-16.09,0 -30.9,5.5 -44.24,16.72l-30.48 25.4c-13.76,10.16 -20.53,23.71 -20.53,40.01zm661.67 358.56l0 -492.97c0,-14.4 5.08,-26.88 15.24,-37.26 10.16,-10.58 22.44,-15.87 36.83,-15.87 14.39,0 26.67,5.08 36.83,15.24 10.16,10.16 15.24,22.65 15.24,37.46l0 64.14 84.88 -72.39c35.14,-29.63 69.43,-44.45 103.08,-44.45l76.2 0c42.97,0 79.8,15.24 110.28,45.93 30.69,30.48 45.93,67.31 45.93,110.28l0 27.94c0,14.82 -5.08,27.52 -15.24,37.89 -10.16,10.37 -22.44,15.45 -36.83,15.45 -14.39,0 -26.67,-5.08 -36.83,-15.24 -10.16,-10.16 -15.24,-22.44 -15.24,-36.83l0 -29.21c0,-14.39 -5.08,-26.67 -15.24,-36.83 -10.16,-10.16 -22.44,-15.24 -36.83,-15.24l-67.52 0c-14.61,0 -30.69,7.62 -48.47,22.86l-148.17 128.27 0 290.83c0,14.39 -5.08,26.67 -15.45,36.83 -10.37,10.16 -22.65,15.24 -36.62,15.24 -14.39,0 -26.67,-5.08 -36.83,-15.24 -10.16,-9.95 -15.24,-22.23 -15.24,-36.83zm1083.31 -315.17l0 124.03 69.43 118.75 35.98 -117.9 11.43 -303.74c0.85,-13.97 6.35,-26.25 16.51,-36.62 9.95,-10.37 22.01,-15.45 35.56,-15.45 14.39,0 26.88,5.08 37.25,15.24 10.38,10.16 15.24,22.44 14.82,36.83l-11.43 324.27 -56.3 183.94c-7.83,25.19 -23.92,37.89 -48.05,37.89l-55.67 0c-19.26,0 -34.5,-9.74 -45.72,-29.21l-57.15 -97.79 -56.73 96.73c-12.91,20.11 -28.15,30.27 -45.93,30.27l-54.82 0c-12.06,0 -22.86,-3.6 -32.6,-10.58 -9.73,-6.99 -15.87,-15.24 -18.41,-24.77l-54.4 -190.92 -11.43 -319.83c-0.42,-13.55 4.66,-25.82 15.45,-36.2 10.8,-10.58 23.5,-15.87 37.89,-15.87 13.12,0 24.77,4.87 34.93,14.6 10.16,9.74 15.45,22.23 15.87,37.47l12.28 304.8 33.23 116.84 72.6 -123.83 0 -119.38c0,-14.39 5.08,-26.45 15.45,-36.4 10.37,-9.95 23.07,-15.03 37.89,-15.03 13.97,0 26.25,5.08 36.62,15.03 10.37,10.16 15.45,22.43 15.45,36.83zm660.4 -501.44l54.61 0c14.39,0 26.67,5.08 36.83,15.24 10.16,9.95 15.24,22.22 15.24,36.83l0 44.45c0,14.6 -5.08,27.09 -15.24,37.46 -10.16,10.59 -22.44,15.88 -36.83,15.88l-55.88 0c-14.82,0 -27.3,-5.29 -37.46,-16.09 -10.16,-10.79 -15.03,-22.65 -14.61,-35.98l1.27 -45.72c0,-14.61 5.08,-26.88 15.24,-36.83 10.16,-10.16 22.44,-15.24 36.83,-15.24zm213.15 868.68l-318.35 0c-14.6,0 -26.88,-5.08 -37.04,-15.24 -10.16,-10.16 -15.24,-22.44 -15.24,-36.83 0,-13.97 5.08,-26.25 15.24,-36.62 10.16,-10.37 22.44,-15.45 36.83,-15.45l106.68 0 0 -388.62 -106.26 0c-14.6,0 -26.88,-5.08 -37.25,-15.45 -10.16,-10.37 -15.24,-22.65 -15.24,-36.62 0,-14.39 5.08,-26.88 15.24,-37.47 10.16,-10.58 22.65,-15.87 37.04,-15.87l159.6 0c14.39,0 26.88,5.29 37.04,15.87 10.16,10.38 15.24,22.86 15.24,37.47l0 440.69 104.99 0c14.6,0 27.3,5.08 37.89,15.24 10.58,10.16 15.87,22.44 15.87,36.83 0,14.39 -5.08,26.67 -15.45,36.83 -10.37,10.16 -22.65,15.24 -36.83,15.24zm491.49 -598.17l238.76 0c37.04,0 69.85,11.01 98.42,33.02 28.58,22.22 42.76,43.81 42.76,64.77 0,14.82 -5.29,27.09 -15.87,36.62 -10.38,9.52 -22.02,14.18 -34.93,14.18 -16.51,0 -31.54,-7.41 -45.3,-22.23 -13.54,-14.81 -27.72,-22.22 -42.75,-22.22l-235.38 0c-23.07,0 -34.71,9.52 -34.71,28.36 0,13.13 7.83,23.29 23.71,30.06l276.43 124.46c28.16,12.28 51.23,32.38 69.22,59.9 17.99,27.31 26.88,57.79 26.88,91.23 0,44.66 -15.87,82.55 -47.41,113.45 -31.75,31.12 -67.52,46.57 -107.74,46.57l-210.82 0c-36.41,0 -70.27,-11.01 -101.6,-32.81 -31.12,-21.8 -46.78,-43.18 -46.78,-63.71 0,-13.76 5.08,-25.82 15.24,-36.2 10.16,-10.58 23.28,-15.87 39.37,-15.87 13.12,0 27.31,7.41 42.33,22.22 15.03,14.82 36.83,22.23 65.41,22.23l193.89 0c15.45,0 28.15,-5.93 38.52,-17.57 10.37,-11.85 15.45,-25.4 15.45,-40.64 0,-23.49 -11.43,-40.43 -34.08,-50.8l-279.61 -125.94c-26.88,-12.07 -47.62,-29.42 -62.02,-52.07 -14.6,-22.65 -21.8,-45.93 -21.8,-69.43 0,-37.25 12.91,-69.42 38.74,-96.73 25.82,-27.3 57.78,-40.85 95.67,-40.85zm1495 -173.78l0 246.17 45.93 -36.62c29,-23.92 58.85,-35.77 89.96,-35.77l95.46 0c35.14,0 66.25,11.85 93.56,35.77l49.53 42.76c13.76,12.06 24.98,29.21 33.87,51.43 8.89,22.23 13.33,44.03 13.33,65.62l0 210.18c0,19.05 -4.23,38.95 -12.49,60.12 -8.25,20.95 -17.78,36.4 -28.36,46.35l-45.3 42.55c-11.64,11.22 -28.15,21.16 -49.74,30.05 -21.38,8.89 -39.58,13.34 -54.4,13.34l-89.32 0c-43.39,0 -90.81,-24.13 -142.03,-72.39l0 20.32c0,14.6 -5.08,26.88 -15.24,36.83 -10.16,10.16 -22.44,15.24 -36.83,15.24 -14.39,0 -26.67,-5.08 -36.83,-15.24 -10.16,-10.16 -15.24,-22.44 -15.24,-36.83l0 -720.09c0,-14.39 5.08,-26.67 15.45,-36.83 10.37,-10.16 22.65,-15.24 36.62,-15.24 14.39,0 26.67,5.08 36.83,15.24 10.16,10.16 15.24,22.65 15.24,37.04zm223.31 279.19l-71.97 0c-17.35,0 -30.69,4.02 -39.79,11.85l-93.56 80.01c-12.06,10.8 -17.99,26.88 -17.99,48.26l0 117.27c0,17.14 6.77,31.53 20.53,42.96l83.61 70.28c12.07,11.22 24.55,16.72 37.89,16.72l84.88 0c12.06,0 22.43,-3.81 31.11,-11.22l41.49 -37.04c11.22,-8.26 16.72,-19.9 16.72,-35.14l0 -218.65c0,-17.36 -5.5,-30.48 -16.72,-39.58l-37.89 -31.54c-11.43,-9.52 -24.34,-14.18 -38.31,-14.18zm858.52 492.76l-315.81 0c-14.6,0 -26.88,-5.29 -37.04,-15.88 -10.16,-10.58 -15.24,-23.07 -15.24,-37.46 0,-13.97 5.08,-26.25 15.24,-36.62 10.16,-10.37 22.44,-15.45 36.83,-15.45l104.14 0 0 -614.68 -104.56 0c-14.4,0 -26.46,-5.08 -36.62,-15.24 -9.95,-10.16 -15.03,-22.44 -15.03,-36.83 0,-14.39 5.08,-26.67 15.03,-36.83 10.16,-10.16 22.44,-15.24 36.83,-15.24l157.9 0c13.97,0 26.25,5.08 36.41,15.45 10.37,10.37 15.45,22.65 15.45,36.62l0 666.75 106.26 0c14.18,0 26.46,5.08 36.83,15.45 10.37,10.37 15.66,22.65 15.66,36.62 0,14.39 -5.08,26.88 -15.24,37.46 -10.16,10.59 -22.44,15.88 -37.04,15.88zm870.16 -409.15l0 220.13c0,46.57 -22.01,89.75 -66.04,129.54 -44.03,39.58 -89.32,59.48 -136.1,59.48l-122.13 0c-47.63,0 -92.92,-20.11 -136.32,-60.54 -43.39,-40.21 -65.19,-82.97 -65.19,-128.48l0 -220.13c0,-45.51 21.17,-88.27 63.5,-128.48 42.33,-40.43 88.48,-60.54 138.01,-60.54l122.13 0c46.78,-0.85 92.07,18.63 136.1,58.21 44.03,39.79 66.04,83.39 66.04,130.81zm-420.37 4.44l0 210.61c0,19.05 6.77,34.08 20.53,45.3l38.95 33.44c8.68,7.41 20.95,11.22 36.62,11.22l120.86 0c17.78,0 33.87,-6.35 48.47,-19.26l31.54 -27.94c12.91,-9.74 19.26,-23.71 19.26,-41.49l0 -210.61c0,-20.74 -6.35,-35.98 -19.26,-45.93l-36.62 -29.21c-12.28,-10.37 -26.88,-15.45 -43.39,-15.45l-107.74 0c-23.71,0 -41.91,5.5 -54.61,16.72l-35.35 30.48c-12.91,10.58 -19.26,24.77 -19.26,42.12zm990.18 628.23l-225.64 0c-14.39,0 -26.67,-5.08 -36.83,-15.03 -10.16,-9.95 -15.24,-22.43 -15.24,-37.25 0,-14.61 5.08,-26.88 15.24,-36.83 9.95,-9.95 22.23,-15.03 36.62,-15.03l225 0c13.55,0 26.46,-5.08 38.31,-15.45l35.14 -30.27c12.06,-9.1 17.99,-21.17 17.99,-35.98l0 -158.33c-48.68,49.11 -96.1,73.66 -142.24,73.66l-79.59 0c-41.27,0 -78.31,-14.18 -111.33,-42.76l-38.95 -34.5c-12.7,-10.79 -23.71,-26.46 -33.02,-46.99 -9.31,-20.74 -13.97,-40.85 -13.97,-60.75l0 -171.87c0,-24.34 4.66,-47.41 13.97,-69.43 9.31,-21.8 20.32,-38.1 33.23,-48.89l42.76 -36.41c30.48,-26.46 66.46,-39.58 107.74,-39.58l75.14 0c40.85,0 78.1,14.39 111.55,43.39l35.98 30.27 -1.27 -20.74c0,-14.4 5.08,-26.67 15.45,-37.26 10.37,-10.37 22.65,-15.66 36.62,-15.66 14.39,0 26.88,5.08 37.47,15.24 10.58,10.16 15.87,22.44 15.87,36.83l0 584.2c0,44.24 -17.78,82.13 -53.34,113.45l-42.12 36.62c-10.8,9.53 -26.04,17.78 -45.51,24.77 -19.68,6.98 -38.1,10.58 -55.03,10.58zm-60.12 -717.55l-69.85 0c-15.24,0 -29.84,5.93 -43.81,17.99l-31.96 26.46c-12.49,10.37 -18.63,24.34 -18.63,42.12l0 172.93c0,13.97 6.77,27.1 20.32,39.58l34.08 30.27c10.58,9.1 22.01,13.55 33.87,13.55l84.66 0c12.28,0 26.04,-6.14 40.85,-18.63l82.13 -70.06c12.7,-11.22 19.05,-24.76 19.05,-40.85l0 -78.32c0,-18.84 -7.2,-34.29 -21.59,-46.14l-84.67 -72.18c-11.85,-11.22 -26.67,-16.72 -44.45,-16.72zm1024.47 84.88l0 220.13c0,46.57 -22.01,89.75 -66.04,129.54 -44.03,39.58 -89.32,59.48 -136.1,59.48l-122.13 0c-47.63,0 -92.92,-20.11 -136.32,-60.54 -43.39,-40.21 -65.19,-82.97 -65.19,-128.48l0 -220.13c0,-45.51 21.17,-88.27 63.5,-128.48 42.33,-40.43 88.48,-60.54 138.01,-60.54l122.13 0c46.78,-0.85 92.07,18.63 136.1,58.21 44.03,39.79 66.04,83.39 66.04,130.81zm-420.37 4.44l0 210.61c0,19.05 6.77,34.08 20.53,45.3l38.95 33.44c8.68,7.41 20.95,11.22 36.62,11.22l120.86 0c17.78,0 33.87,-6.35 48.47,-19.26l31.54 -27.94c12.91,-9.74 19.26,-23.71 19.26,-41.49l0 -210.61c0,-20.74 -6.35,-35.98 -19.26,-45.93l-36.62 -29.21c-12.28,-10.37 -26.88,-15.45 -43.39,-15.45l-107.74 0c-23.71,0 -41.91,5.5 -54.61,16.72l-35.35 30.48c-12.91,10.58 -19.26,24.77 -19.26,42.12zm977.9 37.47l0 124.03 69.43 118.75 35.98 -117.9 11.43 -303.74c0.85,-13.97 6.35,-26.25 16.51,-36.62 9.95,-10.37 22.01,-15.45 35.56,-15.45 14.39,0 26.88,5.08 37.25,15.24 10.38,10.16 15.24,22.44 14.82,36.83l-11.43 324.27 -56.3 183.94c-7.83,25.19 -23.92,37.89 -48.05,37.89l-55.67 0c-19.26,0 -34.5,-9.74 -45.72,-29.21l-57.15 -97.79 -56.73 96.73c-12.91,20.11 -28.15,30.27 -45.93,30.27l-54.82 0c-12.06,0 -22.86,-3.6 -32.6,-10.58 -9.73,-6.99 -15.87,-15.24 -18.41,-24.77l-54.4 -190.92 -11.43 -319.83c-0.42,-13.55 4.66,-25.82 15.45,-36.2 10.8,-10.58 23.5,-15.87 37.89,-15.87 13.12,0 24.77,4.87 34.93,14.6 10.16,9.74 15.45,22.23 15.87,37.47l12.28 304.8 33.23 116.84 72.6 -123.83 0 -119.38c0,-14.39 5.08,-26.45 15.45,-36.4 10.37,-9.95 23.07,-15.03 37.89,-15.03 13.97,0 26.25,5.08 36.62,15.03 10.37,10.16 15.45,22.43 15.45,36.83zm977.9 -78.32l-280.88 634.79c-9.53,22.86 -26.04,34.29 -49.53,34.29l-144.57 0c-14.39,0 -26.67,-5.08 -36.83,-15.03 -10.16,-9.95 -15.24,-22.43 -15.24,-37.25 0,-14.61 5.08,-26.88 15.24,-36.83 10.16,-9.95 22.44,-15.03 36.83,-15.03l111.76 0 72.6 -165.1 -26.88 0c-23.49,0 -40.43,-12.28 -50.8,-36.62l-156.21 -363.22 0 -100.54c0,-14.39 4.87,-26.67 14.82,-36.83 9.95,-10.16 22.01,-15.24 35.98,-15.24 14.61,0 27.09,5.08 37.47,15.24 10.58,9.95 15.87,22.22 15.87,36.83l0.64 77.26 136.52 317.71 37.47 0 140.54 -316.23 -0.21 -80.01c0,-13.55 5.29,-25.61 15.88,-36.2 10.58,-10.58 23.07,-15.87 37.46,-15.87 13.97,0 26.25,5.08 36.62,15.45 10.37,10.37 15.45,22.65 15.45,36.62l0 101.81zm1323.34 78.32l0 124.03 69.43 118.75 35.98 -117.9 11.43 -303.74c0.85,-13.97 6.35,-26.25 16.51,-36.62 9.95,-10.37 22.01,-15.45 35.56,-15.45 14.39,0 26.88,5.08 37.25,15.24 10.38,10.16 15.24,22.44 14.82,36.83l-11.43 324.27 -56.3 183.94c-7.83,25.19 -23.92,37.89 -48.05,37.89l-55.67 0c-19.26,0 -34.5,-9.74 -45.72,-29.21l-57.15 -97.79 -56.73 96.73c-12.91,20.11 -28.15,30.27 -45.93,30.27l-54.82 0c-12.06,0 -22.86,-3.6 -32.6,-10.58 -9.73,-6.99 -15.87,-15.24 -18.41,-24.77l-54.4 -190.92 -11.43 -319.83c-0.42,-13.55 4.66,-25.82 15.45,-36.2 10.8,-10.58 23.5,-15.87 37.89,-15.87 13.12,0 24.77,4.87 34.93,14.6 10.16,9.74 15.45,22.23 15.87,37.47l12.28 304.8 33.23 116.84 72.6 -123.83 0 -119.38c0,-14.39 5.08,-26.45 15.45,-36.4 10.37,-9.95 23.07,-15.03 37.89,-15.03 13.97,0 26.25,5.08 36.62,15.03 10.37,10.16 15.45,22.43 15.45,36.83zm1584.96 367.24l-104.14 0c-42.97,0 -80.01,-15.24 -110.91,-45.93 -31.12,-30.48 -46.57,-67.31 -46.57,-110.28l0 -337.82 -53.34 0c-14.39,0 -26.67,-4.87 -36.83,-14.82 -10.16,-9.95 -15.24,-22.43 -15.24,-37.25 0,-14.39 5.08,-26.67 15.03,-36.83 9.95,-10.16 22.22,-15.24 36.41,-15.24l53.97 0 0 -128.06c0,-14.6 5.08,-26.88 15.24,-37.04 10.16,-10.16 22.44,-15.24 36.83,-15.24 13.55,0 25.82,5.08 36.2,15.45 10.58,10.37 15.87,22.65 15.87,36.83l0 128.06 210.61 0c13.97,0 26.25,5.08 36.62,15.45 10.37,10.37 15.66,22.65 15.66,36.62 0,14.39 -5.08,26.67 -15.45,36.83 -10.37,10.16 -22.65,15.24 -36.62,15.24l-210.82 0 0 337.82c0,13.97 5.29,26.25 15.88,36.62 10.37,10.37 22.86,15.45 37.46,15.45l101.39 0c27.73,0 46.14,-15.03 55.24,-45.09 9.11,-30.05 26.67,-45.08 52.71,-45.08 15.45,0 27.94,5.08 37.68,15.24 9.73,10.16 14.6,22.86 14.6,38.1 0,31.54 -14.82,62.86 -44.24,94.19 -29.63,31.12 -67.31,46.78 -113.24,46.78zm400.05 -52.07l0 -492.97c0,-14.4 5.08,-26.88 15.24,-37.26 10.16,-10.58 22.44,-15.87 36.83,-15.87 14.39,0 26.67,5.08 36.83,15.24 10.16,10.16 15.24,22.65 15.24,37.46l0 64.14 84.88 -72.39c35.14,-29.63 69.43,-44.45 103.08,-44.45l76.2 0c42.97,0 79.8,15.24 110.28,45.93 30.69,30.48 45.93,67.31 45.93,110.28l0 27.94c0,14.82 -5.08,27.52 -15.24,37.89 -10.16,10.37 -22.44,15.45 -36.83,15.45 -14.39,0 -26.67,-5.08 -36.83,-15.24 -10.16,-10.16 -15.24,-22.44 -15.24,-36.83l0 -29.21c0,-14.39 -5.08,-26.67 -15.24,-36.83 -10.16,-10.16 -22.44,-15.24 -36.83,-15.24l-67.52 0c-14.61,0 -30.69,7.62 -48.47,22.86l-148.17 128.27 0 290.83c0,14.39 -5.08,26.67 -15.45,36.83 -10.37,10.16 -22.65,15.24 -36.62,15.24 -14.39,0 -26.67,-5.08 -36.83,-15.24 -10.16,-9.95 -15.24,-22.23 -15.24,-36.83zm923.93 -323.85l204.68 0c11.22,0 27.51,2.54 48.47,7.62l-2.33 -73.66c0,-14.61 -5.08,-26.88 -15.24,-36.83 -10.16,-10.16 -22.65,-15.24 -37.04,-15.24l-198.97 0c-13.97,0 -26.24,-5.08 -36.62,-15.45 -10.37,-10.37 -15.66,-22.65 -15.66,-36.62 0,-14.39 5.08,-26.67 15.24,-36.83 10.16,-10.16 22.44,-15.24 37.04,-15.24l198.55 0c43.18,0 80.01,15.03 110.49,45.3 30.48,30.05 46.35,67.09 47.62,110.91l12.7 389.89c0,14.39 -5.08,26.67 -15.45,36.83 -10.37,10.16 -22.65,15.24 -36.62,15.24 -14.82,0 -27.52,-5.08 -37.89,-15.24 -10.37,-10.16 -15.45,-22.44 -15.45,-36.83l-88.05 52.07 -176.11 0c-43.81,0 -81.07,-15.24 -111.55,-45.93 -30.69,-30.48 -45.93,-67.74 -45.93,-111.55l0 -60.96c0,-43.39 15.45,-80.43 46.36,-111.34 30.9,-30.69 68.15,-46.14 111.76,-46.14zm259.5 203.2l-2.96 -44.24c-0.43,-15.03 -5.72,-27.3 -15.46,-37.25 -9.94,-9.95 -22.22,-15.03 -36.61,-15.03l-205.11 0c-14.39,0 -26.67,5.08 -36.83,15.24 -10.16,10.16 -15.24,22.44 -15.24,36.83l0 58.42c0,13.97 5.08,26.25 15.45,36.62 10.37,10.37 22.65,15.45 36.62,15.45l146.9 0 113.24 -66.04zm350.73 120.65l0 -718.82c0,-14.82 5.08,-27.52 15.24,-37.89 10.16,-10.37 22.44,-15.45 36.83,-15.45 14.39,0 26.67,5.08 36.83,15.45 10.16,10.37 15.24,23.07 15.24,37.89l0 425.45 282.15 -237.91c12.07,-9.95 24.98,-14.82 39.16,-14.82 14.82,0 27.31,5.29 37.25,15.66 9.95,10.59 14.82,22.86 14.82,37.26 0,15.24 -5.5,27.3 -16.72,36.4l-220.77 185 272.2 236.43c10.8,8.68 16.09,20.11 16.09,34.08 0,13.76 -4.87,26.03 -14.82,36.83 -9.94,11.01 -22.22,16.51 -36.61,16.51 -14.4,0 -27.31,-4.66 -38.53,-14.18l-279.61 -241.51 -54.61 45.72 0 157.9c0,14.39 -5.08,26.67 -15.24,36.83 -10.16,10.16 -22.44,15.24 -36.83,15.24 -14.39,0 -26.67,-5.08 -36.83,-15.24 -10.16,-10.16 -15.24,-22.44 -15.24,-36.83zm1242.06 52.07l-222.67 0c-39.16,0 -72.6,-11.85 -100.33,-35.35l-101.18 -88.05c-32.17,-26.88 -48.26,-63.29 -48.26,-109.01l0 -135.89c-1.69,-44.03 16.51,-82.55 54.4,-115.15l91.02 -78.74c29.21,-23.92 60.53,-35.98 93.98,-35.98l233.25 0c14.4,0 26.67,5.08 36.62,15.24 10.16,10.16 15.24,22.44 15.24,36.83 0,14.82 -5.08,27.3 -15.24,37.25 -9.95,9.95 -22.22,14.82 -36.62,14.82l-223.31 0c-13.97,0 -27.3,5.5 -40,16.72l-83.61 71.33c-13.55,11.43 -20.32,27.1 -20.32,46.36l0 127.21c0,13.55 5.29,25.19 16.09,34.71l91.86 78.11c11.43,10.37 26.88,15.45 45.72,15.45l213.36 0c13.97,0 26.25,5.08 36.62,15.24 10.37,10.16 15.45,22.44 15.45,36.83 0,14.39 -5.08,26.67 -15.24,36.83 -10.16,10.16 -22.44,15.24 -36.83,15.24zm501.65 -868.68l54.61 0c14.39,0 26.67,5.08 36.83,15.24 10.16,9.95 15.24,22.22 15.24,36.83l0 44.45c0,14.6 -5.08,27.09 -15.24,37.46 -10.16,10.59 -22.44,15.88 -36.83,15.88l-55.88 0c-14.82,0 -27.3,-5.29 -37.46,-16.09 -10.16,-10.79 -15.03,-22.65 -14.61,-35.98l1.27 -45.72c0,-14.61 5.08,-26.88 15.24,-36.83 10.16,-10.16 22.44,-15.24 36.83,-15.24zm213.15 868.68l-318.35 0c-14.6,0 -26.88,-5.08 -37.04,-15.24 -10.16,-10.16 -15.24,-22.44 -15.24,-36.83 0,-13.97 5.08,-26.25 15.24,-36.62 10.16,-10.37 22.44,-15.45 36.83,-15.45l106.68 0 0 -388.62 -106.26 0c-14.6,0 -26.88,-5.08 -37.25,-15.45 -10.16,-10.37 -15.24,-22.65 -15.24,-36.62 0,-14.39 5.08,-26.88 15.24,-37.47 10.16,-10.58 22.65,-15.87 37.04,-15.87l159.6 0c14.39,0 26.88,5.29 37.04,15.87 10.16,10.38 15.24,22.86 15.24,37.47l0 440.69 104.99 0c14.6,0 27.3,5.08 37.89,15.24 10.58,10.16 15.87,22.44 15.87,36.83 0,14.39 -5.08,26.67 -15.45,36.83 -10.37,10.16 -22.65,15.24 -36.83,15.24zm870.16 -402.59l0 125.73c0,14.18 -5.08,26.25 -15.45,36.62 -10.37,10.37 -22.65,15.45 -36.62,15.45l-368.3 0 0 30.48c0,17.78 7.62,33.02 22.86,45.3l30.48 25.61c16.51,12.91 32.17,19.26 47.2,19.26l267.76 0c13.97,0 26.25,5.08 36.62,15.24 10.37,10.16 15.45,22.44 15.45,36.83 0,13.97 -5.29,26.25 -15.87,36.62 -10.59,10.37 -22.65,15.45 -36.2,15.45l-274.74 0c-18.21,0 -37.26,-3.81 -57.36,-11.43 -19.9,-7.62 -34.72,-15.66 -44.24,-23.92l-46.57 -40.85c-14.39,-11.64 -26.46,-27.73 -36.19,-48.47 -9.74,-20.53 -14.61,-39.58 -14.61,-56.94l0 -238.76c0,-13.55 5.29,-31.96 15.88,-55.03 10.58,-23.08 23.91,-41.07 40,-53.98l43.39 -34.08c28.37,-23.07 60.12,-34.71 94.83,-34.71l146.26 0c36.83,0 71.54,15.24 104.14,45.72l39.16 37.25c28.15,25.19 42.12,62.66 42.12,112.61zm-420.37 -8.04l0 80.43 317.5 0 0 -72.39c0,-19.26 -5.93,-34.08 -17.99,-44.45l-30.48 -26.46c-15.88,-12.91 -30.06,-19.26 -42.33,-19.26l-131.45 0c-16.09,0 -30.9,5.5 -44.24,16.72l-30.48 25.4c-13.76,10.16 -20.53,23.71 -20.53,40.01zm1535.43 350.94l0 231.14c0,14.82 -5.08,27.52 -15.24,37.89 -10.16,10.37 -22.44,15.45 -36.83,15.45 -14.39,0 -26.88,-5.08 -37.46,-15.45 -10.59,-10.37 -15.88,-22.86 -15.88,-37.68l0 -740.83c0,-13.97 5.08,-26.04 15.45,-36.41 10.37,-10.37 23.07,-15.45 37.89,-15.45 13.97,0 26.25,5.08 36.62,15.24 10.37,10.16 15.45,22.01 15.45,35.77l0 32.81c50.38,-55.88 100.33,-83.82 149.44,-83.82l24.13 0c36.83,0 70.69,13.55 101.81,40.85l86.78 74.72c37.89,33.02 56.94,74.93 56.94,125.73l0 161.92c0,51.23 -20.53,94.2 -61.38,129.33l-84.88 73.03c-28.15,25.61 -63.71,38.31 -106.68,38.31l-22.86 0c-40.64,0 -74.93,-13.97 -103.08,-42.12l-40.22 -40.43zm146.9 -22.86l26.67 0c12.91,0 26.46,-6.35 41.06,-19.05l81.07 -71.12c13.76,-10.8 20.53,-25.4 20.53,-43.82l0 -167.42c0,-16.51 -7.62,-31.12 -22.86,-44.03l-87.42 -74.72c-9.95,-8.68 -20.74,-12.91 -32.38,-12.91l-30.27 0c-11.64,0 -26.67,9.52 -45.3,28.57l-77.47 76.63c-13.76,13.76 -20.53,29 -20.53,45.72l0 132.5c0,15.88 7.62,31.54 22.86,46.78l75.14 74.93c18.63,18.63 34.93,27.94 48.9,27.94zm513.5 30.48l0 -492.97c0,-14.4 5.08,-26.88 15.24,-37.26 10.16,-10.58 22.44,-15.87 36.83,-15.87 14.39,0 26.67,5.08 36.83,15.24 10.16,10.16 15.24,22.65 15.24,37.46l0 64.14 84.88 -72.39c35.14,-29.63 69.43,-44.45 103.08,-44.45l76.2 0c42.97,0 79.8,15.24 110.28,45.93 30.69,30.48 45.93,67.31 45.93,110.28l0 27.94c0,14.82 -5.08,27.52 -15.24,37.89 -10.16,10.37 -22.44,15.45 -36.83,15.45 -14.39,0 -26.67,-5.08 -36.83,-15.24 -10.16,-10.16 -15.24,-22.44 -15.24,-36.83l0 -29.21c0,-14.39 -5.08,-26.67 -15.24,-36.83 -10.16,-10.16 -22.44,-15.24 -36.83,-15.24l-67.52 0c-14.61,0 -30.69,7.62 -48.47,22.86l-148.17 128.27 0 290.83c0,14.39 -5.08,26.67 -15.45,36.83 -10.37,10.16 -22.65,15.24 -36.62,15.24 -14.39,0 -26.67,-5.08 -36.83,-15.24 -10.16,-9.95 -15.24,-22.23 -15.24,-36.83zm923.93 -323.85l204.68 0c11.22,0 27.51,2.54 48.47,7.62l-2.33 -73.66c0,-14.61 -5.08,-26.88 -15.24,-36.83 -10.16,-10.16 -22.65,-15.24 -37.04,-15.24l-198.97 0c-13.97,0 -26.24,-5.08 -36.62,-15.45 -10.37,-10.37 -15.66,-22.65 -15.66,-36.62 0,-14.39 5.08,-26.67 15.24,-36.83 10.16,-10.16 22.44,-15.24 37.04,-15.24l198.55 0c43.18,0 80.01,15.03 110.49,45.3 30.48,30.05 46.35,67.09 47.62,110.91l12.7 389.89c0,14.39 -5.08,26.67 -15.45,36.83 -10.37,10.16 -22.65,15.24 -36.62,15.24 -14.82,0 -27.52,-5.08 -37.89,-15.24 -10.37,-10.16 -15.45,-22.44 -15.45,-36.83l-88.05 52.07 -176.11 0c-43.81,0 -81.07,-15.24 -111.55,-45.93 -30.69,-30.48 -45.93,-67.74 -45.93,-111.55l0 -60.96c0,-43.39 15.45,-80.43 46.36,-111.34 30.9,-30.69 68.15,-46.14 111.76,-46.14zm259.5 203.2l-2.96 -44.24c-0.43,-15.03 -5.72,-27.3 -15.46,-37.25 -9.94,-9.95 -22.22,-15.03 -36.61,-15.03l-205.11 0c-14.39,0 -26.67,5.08 -36.83,15.24 -10.16,10.16 -15.24,22.44 -15.24,36.83l0 58.42c0,13.97 5.08,26.25 15.45,36.62 10.37,10.37 22.65,15.45 36.62,15.45l146.9 0 113.24 -66.04zm-17849.64 -837.07l54.61 0c53.33,0 98.89,18.87 136.6,56.58 4.32,4.32 8.31,8.86 11.95,13.57 12.36,14.79 22.29,31.25 29.8,49.4 9.88,23.88 14.83,48.44 14.83,73.63l0 44.45c0,42.68 -12.29,80.6 -36.86,113.74 9.25,12.64 16.78,26.1 22.58,40.35 9.51,23.38 14.28,47.83 14.28,73.24l0 302.73c37.07,6.67 70.3,23.92 99.33,51.78 19.23,18.47 33.89,39.36 43.87,62.58 10.38,24.05 15.55,49.27 15.55,75.67 0,25.62 -4.93,50.28 -14.86,74.02 -9.83,23.59 -24.19,44.66 -43.03,63.13 -18.2,17.85 -38.98,31.6 -62.19,41.2 -23.86,9.88 -48.34,14.83 -73.31,14.83l-318.35 0c-53.73,0 -99.1,-18.87 -136.81,-56.58 -17.77,-17.77 -31.7,-38.83 -41.75,-63.13 -9.88,-23.89 -14.83,-48.37 -14.83,-73.47 0,-51.78 18.68,-97.17 56.03,-135.29 18.47,-18.84 39.54,-33.2 63.13,-43.03 12.92,-5.4 26.12,-9.33 39.59,-11.78l0 -112.63c-13.36,-2.46 -26.48,-6.35 -39.38,-11.71 -4.75,-1.97 -9.33,-4.18 -13.75,-6.6 -18.02,-9.22 -34.35,-21.17 -49.04,-35.88 -0.18,-0.18 -0.36,-0.37 -0.54,-0.56l-0.01 0.01c-18.03,-18.43 -31.8,-38.99 -41.19,-61.59 -9.9,-23.76 -14.84,-48.38 -14.84,-73.7 0,-51.84 18.31,-96.86 54.93,-135.03 16.4,-17.08 35.05,-30.6 55.84,-40.53 -4.66,-17.46 -6.68,-35.74 -6.08,-54.91 0.01,-0.32 0.03,-0.63 0.04,-0.94l1.12 -40.37 -0.44 0c0,-53.4 18.96,-98.84 56.85,-136.33l-0.27 -0.27c17.77,-17.77 38.83,-31.7 63.13,-41.75 23.89,-9.88 48.37,-14.83 73.47,-14.83zm704.64 270.51l238.76 0c32.95,0 65.31,5.33 97.03,15.98 31.42,10.53 60.55,26.14 87.38,46.81 0.11,0.09 0.23,0.18 0.34,0.27l0.21 -0.27c25.7,19.98 46.69,42.34 62.97,67.03 22.92,34.78 34.36,71.17 34.36,109.08 0,56.33 -20.92,103.7 -62.72,141.35 -1.83,1.65 -3.7,3.24 -5.59,4.78 -2.67,2.24 -5.38,4.4 -8.14,6.49 4.81,6.26 9.38,12.71 13.72,19.34 2.72,4.15 5.18,8.4 7.41,12.71 12.97,21.84 22.91,44.53 29.84,67.98 8.53,28.99 12.78,58.25 12.78,87.71 0,40.76 -7.64,79.43 -22.89,115.88 -15.22,36.44 -37.56,69.09 -66.96,97.89 -28.13,27.56 -59.34,48.76 -93.69,63.62 -0.07,0.03 -0.13,0.05 -0.2,0.08l0.2 0.47c-35.83,15.48 -73.38,23.19 -112.72,23.19l-210.82 0c-32.06,0 -63.95,-5.14 -95.61,-15.37 -31.11,-10.04 -59.94,-24.34 -86.47,-42.8 -4.09,-2.85 -7.98,-5.87 -11.68,-9.06 -23.26,-17.62 -42.1,-36.25 -56.44,-55.77 -26.14,-35.62 -39.29,-73.91 -39.29,-114.63 0,-51.26 18.33,-95.84 54.94,-133.75l-0.01 -0.01c13.11,-13.65 27.75,-25.04 43.92,-34.15 -16.28,-15.4 -30.39,-32.48 -42.3,-51.21 -1.45,-2.29 -2.83,-4.61 -4.13,-6.95 -11.85,-19.62 -21.07,-39.98 -27.64,-60.95 -8.07,-25.66 -12.08,-51.4 -12.08,-77.05 0,-36.1 6.73,-70.93 20.15,-104.46 12.85,-32.05 32.09,-61.62 57.73,-88.73 26.72,-28.25 56.78,-49.49 90.09,-63.7 34.05,-14.54 69.93,-21.8 107.55,-21.8zm1636.11 -32.67l0 32.67 90.24 0c34.64,0 67.92,6.08 99.88,18.29 30.55,11.66 59.1,29.08 85.69,52.25l0.04 -0.04 49.53 42.76c1.91,1.65 3.75,3.34 5.55,5.06 14.27,13.29 27.12,28.64 38.57,46.06 11.29,17.16 20.71,35.27 28.34,54.32 1.23,3.08 2.34,6.17 3.34,9.28 5.85,15.88 10.47,32.06 13.82,48.58 4.42,21.79 6.64,41.84 6.64,60.13l0 210.18c0,18.13 -2.18,37.42 -6.46,57.93 -3.79,18.17 -9.13,35.98 -15.95,53.45 -7.09,18 -15.21,34.45 -24.28,49.25 -11.41,18.66 -24.41,34.81 -38.81,48.37l-45.3 42.55c-0.86,0.81 -1.73,1.6 -2.6,2.38 -12.85,11.91 -26.93,22.47 -42.24,31.71 -13.14,7.93 -28.97,15.72 -47.42,23.33l0.08 0.19c-16.96,7.05 -33.68,12.59 -50.04,16.61 -21.07,5.17 -40.56,7.75 -58.38,7.75l-89.32 0c-35.44,0 -70.75,-7.2 -105.89,-21.6 -4.77,2.42 -9.68,4.68 -14.74,6.77 -23.88,9.88 -48.37,14.83 -73.47,14.83 -53.33,0 -98.89,-18.87 -136.6,-56.58 -17.77,-17.77 -31.7,-38.83 -41.75,-63.13 -9.88,-23.89 -14.83,-48.37 -14.83,-73.47l0 -720.09c0,-25.57 4.92,-50.26 14.86,-74.02 9.83,-23.58 24.14,-44.64 43.03,-63.13 18.42,-18.03 38.98,-31.79 61.59,-41.19 23.76,-9.9 48.38,-14.84 73.7,-14.84 53.33,0 98.89,18.87 136.6,56.58 17.88,17.88 31.79,39.01 41.73,63.19 9.88,24.03 14.85,48.67 14.85,73.62zm34.01 421.86l-34.01 29.08 0 46.48 33.32 28.01 0.69 0 0 -103.57zm906.71 491.2l-315.81 0c-26.45,0 -51.72,-5.18 -75.86,-15.55 -4.94,-2.12 -9.68,-4.5 -14.24,-7.1 -17.89,-9.54 -34.01,-21.8 -48.36,-36.78 -17.86,-18.6 -31.43,-39.27 -40.65,-61.94 -9.51,-23.38 -14.28,-47.76 -14.28,-73.08 0,-51.78 18.68,-97.17 56.03,-135.29 18.47,-18.84 39.54,-33.2 63.13,-43.03 12.11,-5.06 24.46,-8.83 37.05,-11.3l0 -339.16c-37.97,-6.8 -71.02,-24.62 -99.84,-53.44 -5.34,-5.34 -10.16,-11.01 -14.47,-16.93 -11.08,-14.1 -20.13,-29.71 -27.12,-46.8 -0.03,-0.06 -0.05,-0.13 -0.08,-0.19l-0.47 0.19c-9.45,-23.19 -14.23,-47.5 -14.23,-72.87 0,-25.35 4.77,-49.66 14.23,-72.87 2.93,-7.24 6.41,-14.1 10.35,-20.57 8.47,-15.43 18.9,-29.46 31.24,-42.06 0.27,-0.28 0.55,-0.55 0.83,-0.82l-0.28 -0.28c17.77,-17.77 38.83,-31.7 63.13,-41.75 23.89,-9.88 48.37,-14.83 73.47,-14.83l157.9 0c25.46,0 50.5,5.1 74.85,15.46 4.57,1.95 8.99,4.11 13.24,6.47 17.69,9.14 33.68,20.85 47.82,35.13l0.27 -0.27c17.53,17.53 31.3,38.32 41.34,62.08 10.34,24.51 15.45,49.32 15.45,74.31l0 528.82c13.25,2.46 26.25,6.34 39.01,11.68 23.11,9.63 43.85,23.62 62.19,41.93 0.09,0.09 0.18,0.19 0.27,0.28l0.28 -0.28c17.57,17.57 31.46,38.2 41.49,61.64 10.3,24.07 15.51,49.07 15.51,74.75 0,51.86 -18.31,96.89 -54.93,135.02 -18.1,18.89 -38.98,33.46 -62.7,43.68l0.09 0.2c-24.14,10.38 -49.41,15.55 -75.85,15.55zm999.51 -249.06c-5.08,17.03 -11.81,33.76 -20.18,50.18 -18.47,36.22 -45.47,70.41 -80.95,102.47 -0.09,0.08 -0.18,0.16 -0.28,0.24l0.28 0.31c-32.99,29.65 -68.01,52.62 -105.06,68.83 -41.11,18.01 -82.89,27.03 -125.3,27.03l-122.13 0c-42.63,0 -84.78,-9.26 -126.52,-27.79 -37.9,-16.83 -73.12,-40.41 -105.71,-70.78 -2.93,-2.73 -5.71,-5.56 -8.36,-8.47 -30.45,-29.68 -53.88,-60.68 -70.28,-92.92 -1.7,-3.34 -3.24,-6.71 -4.65,-10.11 -18.05,-38.68 -27.1,-78.69 -27.1,-120.06l0 -220.13c0,-44.22 10.26,-87.06 30.76,-128.52 17.98,-36.38 43.6,-70.36 76.84,-101.93 32.91,-31.43 68.63,-55.57 106.99,-72.39 41.48,-18.21 84.22,-27.29 128.03,-27.29l122.13 0c4.67,0 9.29,0.23 13.85,0.68 37.9,1.28 74.69,9.57 110.35,24.84 37.39,16.03 72.78,39.07 106.16,69.07 3.32,2.99 6.46,6.11 9.43,9.33 30.69,29.41 54.54,60.93 71.52,94.55 4.28,8.47 8.12,17.01 11.54,25.61 1.58,-4.26 3.26,-8.48 5.03,-12.66 0.07,-0.16 0.14,-0.31 0.2,-0.46l-0.2 -0.09c7.87,-18.45 17.36,-35.88 28.48,-52.27 13.41,-19.76 28.03,-36.29 43.88,-49.54 2.74,-2.29 5.54,-4.46 8.4,-6.51l32.9 -28.02 -0.19 -0.22c28.44,-24.68 59.55,-43.2 93.27,-55.59 34,-12.49 69.54,-18.72 106.52,-18.72l75.14 0c37.22,0 73.69,6.92 109.35,20.77 0.54,0.21 1.09,0.43 1.63,0.64 4.11,-2.09 8.3,-4.06 12.6,-5.9 24.06,-10.29 49.05,-15.51 74.75,-15.51 51.84,0 96.86,18.31 135.03,54.93 19.23,18.47 33.89,39.36 43.87,62.58 9.33,21.61 14.45,44.17 15.39,67.68 17.22,-30.23 39.92,-58.74 68.11,-85.51 32.91,-31.43 68.63,-55.57 106.99,-72.39 41.48,-18.21 84.22,-27.29 128.03,-27.29l122.13 0c4.67,0 9.29,0.23 13.85,0.68 37.9,1.28 74.69,9.57 110.35,24.84 37.39,16.03 72.78,39.07 106.16,69.07 3.32,2.99 6.46,6.11 9.43,9.33 20.87,20 38.58,40.97 53.11,62.92 2.14,-16.54 6.51,-32.63 13.15,-48.18 10,-23.42 24.6,-44.57 43.85,-63.1 0.3,-0.29 0.61,-0.57 0.91,-0.85 18.04,-17.23 38.16,-30.51 60.21,-39.71 23.85,-9.98 48.67,-15 74.33,-15 24.99,0 49.2,4.91 72.59,14.67 21.91,9.13 41.89,22.35 59.9,39.62 35.91,34.43 55.43,76.84 58.52,127.21 10.21,-1.62 20.62,-2.43 31.24,-2.43 9.55,0 19.09,0.77 28.6,2.29 1.81,-23.16 7.35,-45.11 16.66,-65.75 9.25,-20.52 22.18,-39.43 38.75,-56.6l-0.01 -0.01c17.67,-18.42 38.47,-32.77 62.06,-42.98 24.64,-10.69 49.71,-16.02 74.92,-16.02 52.21,0 97.8,18.68 135.92,56.03 13.01,12.74 23.84,26.76 32.51,42.05 8.2,-14.51 18.37,-27.98 30.55,-40.4 17.8,-18.15 38.56,-32.27 62.21,-42.28 24.21,-10.27 48.96,-15.4 74.09,-15.4 51.6,0 96.21,17.97 133.89,53.86l0.04 -0.04c19.72,18.56 34.74,39.74 44.97,63.53 10.38,24.05 15.55,49.34 15.55,75.83 0,3.79 -0.15,7.55 -0.45,11.26l0.3 35.43 17.1 39.81 16.47 -37.06 -0.13 -50.71 -0.55 0c0,-25.8 5.36,-50.98 16.1,-75.43 10.08,-23.03 23.8,-43.22 41.12,-60.54 17.46,-17.46 38.16,-31.3 62.03,-41.46l-0.08 -0.2c24.43,-10.37 49.54,-15.55 75.28,-15.55 24.99,0 49.8,5.11 74.31,15.45 23.76,10.04 44.55,23.81 62.08,41.34 17.53,17.53 31.3,38.32 41.34,62.08 10.34,24.51 15.45,49.32 15.45,74.31l0 101.81c0,23.11 -5.56,44.93 -15.41,64.19l-277.6 627.37c-0.48,1.1 -0.98,2.18 -1.48,3.26 -34.17,76.9 -93.19,115.37 -177.03,115.37l-144.57 0c-25.37,0 -49.68,-4.78 -72.87,-14.23 -7.25,-2.94 -14.12,-6.42 -20.59,-10.36 -15.44,-8.48 -29.46,-18.9 -42.04,-31.23 -18.33,-17.97 -32.58,-39.25 -42.65,-63.71l-0.19 0.08c-9.9,-24.15 -14.84,-48.83 -14.84,-73.94 0,-53.79 19.23,-99.5 57.68,-137.15 17.95,-17.6 38.86,-31.32 62.63,-41.04 0.06,-0.03 0.13,-0.05 0.19,-0.08l-0.19 -0.47c17.04,-6.94 34.68,-11.37 52.9,-13.22 -0.91,-1.99 -1.81,-4 -2.68,-6.04l-0.2 0.09 -126.31 -293.7 -3.65 103.5c-0.52,14.72 -3.29,28.83 -7.95,42.01l-54.41 177.76c-0.1,0.34 -0.21,0.67 -0.32,1l0.32 0.1c-12.58,40.44 -34.4,72.91 -65.33,97.29 -5.32,4.18 -10.86,7.91 -16.55,11.21 -30,19.06 -63.6,28.61 -100.67,28.61l-55.67 0c-36.39,0 -70.21,-9.97 -101.4,-29.9 -0.63,-0.4 -1.26,-0.81 -1.88,-1.22 -31.47,20.71 -65.51,31.12 -102.25,31.12l-54.82 0c-20.51,0 -40.76,-3.33 -60.72,-9.84 -19.85,-6.47 -37.81,-15.59 -54.01,-27.2 -16.2,-11.61 -30.46,-25.73 -42.77,-42.3 -13.28,-17.86 -22.92,-37.37 -28.92,-58.59l-0.19 0.05 -31.23 -109.6c-5.02,16.49 -11.59,32.69 -19.7,48.6 -18.47,36.22 -45.47,70.41 -80.95,102.47 -0.09,0.08 -0.18,0.16 -0.28,0.24l0.28 0.31c-32.99,29.65 -68.01,52.62 -105.06,68.83 -41.11,18.01 -82.89,27.03 -125.3,27.03l-122.13 0c-42.63,0 -84.78,-9.26 -126.52,-27.79 -37.9,-16.83 -73.12,-40.41 -105.71,-70.78 -2.93,-2.73 -5.71,-5.56 -8.36,-8.47 -25.85,-25.21 -46.65,-51.36 -62.38,-78.42l0 82.45c0,86.55 -33.77,159.81 -101.3,219.28 -2.57,2.26 -5.2,4.41 -7.89,6.45l-35.33 30.72c-1.93,1.67 -3.9,3.28 -5.89,4.82 -11.66,9.48 -24.45,18 -38.34,25.57 -13.72,7.46 -29.06,14.23 -45.93,20.29 -0.22,0.08 -0.44,0.15 -0.66,0.23l0.11 0.32c-16.37,5.81 -32.76,10.32 -49.06,13.44 -18.65,3.59 -36.28,5.41 -52.82,5.41l-225.64 0c-25.37,0 -49.68,-4.78 -72.87,-14.23 -7.25,-2.94 -14.12,-6.42 -20.59,-10.36 -15.44,-8.48 -29.46,-18.9 -42.04,-31.23 -18.33,-17.97 -32.58,-39.25 -42.65,-63.71l-0.19 0.08c-9.9,-24.15 -14.84,-48.83 -14.84,-73.94 0,-53.4 18.96,-98.84 56.85,-136.33l-0.27 -0.27c7.6,-7.6 15.81,-14.5 24.61,-20.69 -0.74,-0.69 -1.48,-1.37 -2.21,-2.07l-32.5 -28.79 -0.13 0.15c-15.7,-13.33 -29.73,-28.79 -42.03,-46.3 -9.57,-13.63 -18.24,-28.61 -25.96,-44.89zm-408.61 -244.97l0 107.67 34.01 0 0 -107.67 -34.01 0zm765.81 2.92l0 57.25 32.74 -27.93 0 -1.41 -32.74 -27.91zm768.35 -2.92l0 107.67 34.01 0 0 -107.67 -34.01 0zm3114.56 -205c1.81,-23.16 7.35,-45.11 16.66,-65.75 9.25,-20.52 22.18,-39.43 38.75,-56.6l-0.01 -0.01c17.67,-18.42 38.47,-32.77 62.06,-42.98 24.64,-10.69 49.71,-16.02 74.92,-16.02 52.21,0 97.8,18.68 135.92,56.03 19.22,18.81 33.68,40.44 43.43,64.78 9.67,24.14 14.05,49.58 13.28,76.23 -0.01,0.37 -0.03,0.73 -0.04,1.1l0.04 0 -11.43 324.27c-0.52,14.72 -3.29,28.83 -7.95,42.01l-54.41 177.76c-0.1,0.34 -0.21,0.67 -0.32,1l0.32 0.1c-12.58,40.44 -34.4,72.91 -65.33,97.29 -5.32,4.18 -10.86,7.91 -16.55,11.21 -30,19.06 -63.6,28.61 -100.67,28.61l-55.67 0c-36.39,0 -70.21,-9.97 -101.4,-29.9 -0.63,-0.4 -1.26,-0.81 -1.88,-1.22 -31.47,20.71 -65.51,31.12 -102.25,31.12l-54.82 0c-20.51,0 -40.76,-3.33 -60.72,-9.84 -19.85,-6.47 -37.81,-15.59 -54.01,-27.2 -16.2,-11.61 -30.46,-25.73 -42.77,-42.3 -13.28,-17.86 -22.92,-37.37 -28.92,-58.59l-0.19 0.05 -54.4 -190.92c-4.14,-14.56 -5.82,-29.23 -5.32,-43.59l-11.07 -309.86c-0.06,-1.6 -0.08,-3.19 -0.08,-4.77 -0.31,-25.96 4.55,-50.97 14.68,-74.71 10,-23.42 24.6,-44.57 43.85,-63.1 0.3,-0.29 0.61,-0.57 0.91,-0.85 18.04,-17.23 38.16,-30.51 60.21,-39.71 23.85,-9.98 48.67,-15 74.33,-15 24.99,0 49.2,4.91 72.59,14.67 21.91,9.13 41.89,22.35 59.9,39.62 35.91,34.43 55.43,76.84 58.52,127.21 10.21,-1.62 20.62,-2.43 31.24,-2.43 9.55,0 19.09,0.77 28.6,2.29zm1608.43 699.03l-104.14 0c-39.39,0 -77.26,-7.49 -113.53,-22.51 -35.6,-14.72 -67.64,-36.15 -96.05,-64.21 -28.68,-28.09 -50.6,-60.17 -65.78,-96.13 -15.51,-36.7 -23.23,-74.87 -23.23,-114.47l0 -217.84c-17.33,-8.8 -33.24,-20.28 -47.73,-34.48 -18.33,-17.97 -32.58,-39.25 -42.65,-63.71l-0.19 0.08c-9.9,-24.15 -14.84,-48.83 -14.84,-73.94 0,-25.35 4.77,-49.66 14.23,-72.87 2.93,-7.24 6.41,-14.1 10.35,-20.57 8.47,-15.43 18.9,-29.46 31.24,-42.06 14.79,-15.11 31.36,-27.33 49.59,-36.67l0 -7.96c0,-53.73 18.87,-99.1 56.58,-136.81 17.77,-17.77 38.83,-31.7 63.13,-41.75 23.89,-9.88 48.37,-14.83 73.47,-14.83 25.35,0 50.32,5.14 74.53,15.47 22.26,9.48 42.48,23.08 60.34,40.77 18.7,18.31 32.99,38.91 42.76,61.64 2.76,6.41 4.99,12.92 6.74,19.47 4.51,14.23 7.29,28.57 8.34,42.99l69.97 0c24.99,0 49.8,5.11 74.31,15.45 23.76,10.04 44.55,23.81 62.08,41.34 17.57,17.57 31.46,38.2 41.49,61.64 10.3,24.07 15.51,49.07 15.51,74.75 0,25.62 -4.93,50.28 -14.86,74.02 -9.83,23.59 -24.19,44.66 -43.03,63.13 -18.44,18.05 -39,31.8 -61.59,41.19 -23.78,9.91 -48.4,14.84 -73.7,14.84l-69.71 0 0 60.74c34.81,-28.8 75.35,-43.24 121.57,-43.24 55.41,0 101.54,19.61 139.1,58.79 4.55,4.73 8.69,9.7 12.45,14.86 0.74,0.94 1.47,1.88 2.19,2.83l0 -286.1c0,-51.73 18.33,-96.89 54.94,-134.81l-0.01 -0.01c18.46,-19.22 39.34,-33.88 62.58,-43.87 24.04,-10.37 49.25,-15.55 75.67,-15.55 41.37,0 78.07,11.36 110.05,34.06 7.78,-4.23 15.56,-8.02 23.33,-11.37 35.06,-15.11 70.59,-22.69 106.65,-22.69l76.2 0c39.85,0 77.86,7.49 113.92,22.51 35.37,14.71 67.35,36.41 95.86,65.03 28.62,28.51 50.32,60.49 65.03,95.86 15.02,36.06 22.51,74.07 22.51,113.92l0 27.94c0,22.24 -3.33,43.26 -10,62.98 14.37,-28.87 33.3,-55.03 56.78,-78.51 3.5,-3.5 7.14,-6.78 10.91,-9.84 8.66,-7.87 17.64,-15.16 26.95,-21.87 -1.63,-3.3 -3.18,-6.67 -4.64,-10.09 -10.29,-24.06 -15.51,-49.05 -15.51,-74.75 0,-53.33 18.87,-98.89 56.58,-136.6 17.79,-17.79 38.83,-31.73 63.15,-41.75 24,-9.88 48.53,-14.83 73.66,-14.83l198.55 0c38.9,0 76.55,7.43 112.93,22.32 0.16,0.06 0.31,0.13 0.47,0.2l0.08 -0.2c35.42,14.51 67.34,35.77 95.68,63.77 26.2,25.84 46.84,54.89 61.84,87.04l0 -204.74c0,-52.65 18.68,-98.44 56.03,-136.56 18.47,-18.84 39.54,-33.2 63.13,-43.03 23.74,-9.93 48.4,-14.86 74.02,-14.86 25.57,0 50.26,4.92 74.02,14.86 23.6,9.84 44.66,24.19 63.13,43.03 18.29,18.69 32.24,39.94 41.74,63.55 9.53,23.68 14.29,48.06 14.29,73.01l0 122.29 50.09 -42.24c3.65,-3.09 7.42,-5.96 11.28,-8.62 15.38,-11.35 31.64,-20.27 48.85,-26.77 23.07,-8.72 46.35,-13.05 69.98,-13.05 26.33,0 51.39,5.03 75,14.95 7.22,3.03 14.05,6.6 20.48,10.62 15.96,9.05 30.37,20.29 43.19,33.64 0.36,0.38 0.71,0.76 1.07,1.14l0.04 -0.04c16.92,18.05 30.01,38.6 39.25,61.85 9.46,23.81 14.15,47.72 14.15,71.87 0,27.31 -5.79,53.61 -17.38,78.93 -11.75,25.61 -28.47,47.37 -50.18,65.35l0.13 0.16 -94.29 79.01 144.22 125.27c14.5,11.75 26.75,25.07 36.76,39.87 -6.25,-24.09 -9.38,-49.35 -9.38,-75.75l0 -135.89c0,-3.39 0.13,-6.76 0.36,-10.09 0.53,-39.29 9.12,-76.61 25.78,-111.85 17.55,-37.17 43.53,-70.6 77.87,-100.14 0.79,-0.68 1.59,-1.34 2.39,-1.99l88.08 -76.2c0.98,-0.85 1.97,-1.68 2.97,-2.49l-0.22 -0.27c26.23,-21.49 54.47,-38.05 84.6,-49.58 31.93,-12.22 64.83,-18.37 98.68,-18.37l233.25 0c53,0 98.62,18.96 136.12,56.85l0.27 -0.27c17.77,17.77 31.7,38.83 41.75,63.13 9.88,23.88 14.83,48.37 14.83,73.47 0,53.44 -18.97,99.25 -56.85,136.75l0.27 0.27c-17.98,17.98 -39.21,31.91 -63.5,41.79l0.08 0.19c-23.41,9.47 -47.77,14.18 -72.97,14.18l-192.28 0 -33.85 28.88 0 47.82 36.42 30.97 189.5 0c51.78,0 97.17,18.68 135.29,56.03 18.84,18.47 33.19,39.53 43.03,63.13 9.94,23.76 14.86,48.45 14.86,74.02 0,53.33 -18.87,98.89 -56.58,136.6 -17.76,17.76 -38.82,31.7 -63.13,41.75 -23.88,9.88 -48.37,14.83 -73.47,14.83l-222.67 0c-35.16,0 -68.93,-5.74 -101.24,-17.11 -32.93,-11.6 -62.97,-28.93 -90.04,-51.86 -0.5,-0.43 -0.99,-0.86 -1.49,-1.29l-0.16 0.18 -101.18 -88.05c-1.64,-1.43 -3.24,-2.9 -4.8,-4.38 -21.81,-19.44 -39.87,-41.44 -54.17,-65.99 2.09,11.16 3.12,22.51 3.12,34.05 0,24.33 -4.7,48.31 -14.15,71.9 -8.72,21.75 -21.1,41.5 -37.1,59.14l0.05 0.05c-18.22,20.21 -39.45,35.72 -63.46,46.54 -24.85,11.21 -50.84,16.82 -77.88,16.82 -23.53,0 -46.6,-4.09 -69.05,-12.37 -21.87,-8.06 -42.05,-19.84 -60.43,-35.43 -1.91,-1.62 -3.76,-3.27 -5.57,-4.97l-103.06 -89.01c-8.44,31.82 -25.14,60.23 -50.11,85.2 -17.76,17.76 -38.82,31.7 -63.13,41.75 -23.88,9.88 -48.37,14.83 -73.47,14.83 -53.33,0 -98.89,-18.87 -136.6,-56.58 -14.62,-14.62 -26.65,-31.48 -36.05,-50.53 -9.42,18.77 -21.93,35.82 -37.5,51.08 -18.44,18.05 -39,31.8 -61.59,41.19 -23.78,9.91 -48.4,14.84 -73.7,14.84 -27.78,0 -53.64,-5.2 -77.47,-15.59 -20.39,10.4 -42.28,15.37 -63.92,15.35l0 0.24 -176.11 0c-39.73,0 -77.86,-7.49 -114.32,-22.51 -36.04,-14.83 -68.32,-36.51 -96.73,-65.03 -28.52,-28.41 -50.2,-60.69 -65.03,-96.73 -15.02,-36.46 -22.51,-74.59 -22.51,-114.32l0 -60.96c0,-36.44 6.23,-71.26 18.7,-104.48 -8.71,16.18 -19.98,31.35 -33.81,45.46 -18.49,18.89 -39.55,33.2 -63.13,43.03 -23.76,9.94 -48.45,14.86 -74.02,14.86 -53.33,0 -98.89,-18.87 -136.6,-56.58 -14.54,-14.54 -26.51,-31.28 -35.88,-50.2l-54.71 47.36 0 226.92c0,25.62 -4.93,50.28 -14.86,74.02 -9.83,23.59 -24.19,44.66 -43.03,63.13 -18.44,18.05 -39,31.8 -61.59,41.19 -23.78,9.91 -48.4,14.84 -73.7,14.84 -53.33,0 -98.89,-18.87 -136.6,-56.58 -4.27,-4.27 -8.2,-8.74 -11.81,-13.39 -12.41,-14.81 -22.4,-31.35 -29.94,-49.58 -4.77,-11.53 -8.39,-23.21 -10.86,-35.05 -12.61,22.1 -28.34,43.15 -47.14,63.17 -1.01,1.07 -2.03,2.11 -3.06,3.14 -27.86,28.58 -60.02,50.47 -96.51,65.55 -36.58,15.15 -75.33,22.74 -116.2,22.74zm3677.92 -1150.9l54.61 0c53.33,0 98.89,18.87 136.6,56.58 4.32,4.32 8.31,8.86 11.95,13.57 12.36,14.79 22.29,31.25 29.8,49.4 9.88,23.88 14.83,48.44 14.83,73.63l0 44.45c0,42.68 -12.29,80.6 -36.86,113.74 9.25,12.64 16.78,26.1 22.58,40.35 9.51,23.38 14.28,47.83 14.28,73.24l0 302.73c37.07,6.67 70.3,23.92 99.33,51.78 19.23,18.47 33.89,39.36 43.87,62.58 10.38,24.05 15.55,49.27 15.55,75.67 0,25.62 -4.93,50.28 -14.86,74.02 -9.83,23.59 -24.19,44.66 -43.03,63.13 -18.2,17.85 -38.98,31.6 -62.19,41.2 -23.86,9.88 -48.34,14.83 -73.31,14.83l-318.35 0c-53.73,0 -99.1,-18.87 -136.81,-56.58 -17.77,-17.77 -31.7,-38.83 -41.75,-63.13 -9.88,-23.89 -14.83,-48.37 -14.83,-73.47 0,-51.78 18.68,-97.17 56.03,-135.29 18.47,-18.84 39.54,-33.2 63.13,-43.03 12.92,-5.4 26.12,-9.33 39.59,-11.78l0 -112.63c-13.36,-2.46 -26.48,-6.35 -39.38,-11.71 -4.75,-1.97 -9.33,-4.18 -13.75,-6.6 -18.02,-9.22 -34.35,-21.17 -49.04,-35.88 -0.18,-0.18 -0.36,-0.37 -0.54,-0.56l-0.01 0.01c-18.03,-18.43 -31.8,-38.99 -41.19,-61.59 -9.9,-23.76 -14.84,-48.38 -14.84,-73.7 0,-51.84 18.31,-96.86 54.93,-135.03 16.4,-17.08 35.05,-30.6 55.84,-40.53 -4.66,-17.46 -6.68,-35.74 -6.08,-54.91 0.01,-0.32 0.03,-0.63 0.04,-0.94l1.12 -40.37 -0.44 0c0,-53.4 18.96,-98.84 56.85,-136.33l-0.27 -0.27c17.77,-17.77 38.83,-31.7 63.13,-41.75 23.89,-9.88 48.37,-14.83 73.47,-14.83zm1224.42 607.2l0 125.73c0,25.16 -5.11,49.86 -15.42,74.31 -5.78,13.76 -12.8,26.43 -21.05,38.04 8.71,11.95 15.91,24.76 21.61,38.42 9.94,23.76 14.86,48.45 14.86,74.02 0,52.92 -19.45,98.85 -58.31,136.94 -18.22,17.84 -38.42,31.43 -60.54,40.82 -24.23,10.32 -49.04,15.42 -74.33,15.42l-274.74 0c-34.86,0 -70.4,-6.94 -106.97,-20.8 -0.16,-0.06 -0.32,-0.13 -0.48,-0.19l-0.07 0.19c-15.09,-5.77 -29.3,-12.28 -42.5,-19.41 -16.29,-8.81 -30.86,-18.79 -43.63,-29.87 -1.16,-1 -2.29,-2.03 -3.41,-3.06l-39.43 -34.58c-17,-13.77 -31.85,-29.12 -44.52,-46.07 -3.21,-4.3 -6.12,-8.73 -8.77,-13.25 -7.97,-12.04 -15.21,-24.97 -21.7,-38.76l-0.21 0.1c-8.23,-17.34 -14.84,-35.71 -19.77,-54.98 -5.74,-22.38 -8.62,-43.09 -8.62,-62.04l0 -238.76c0,-18.47 3.36,-39.39 10.04,-62.56 0.05,-0.17 0.1,-0.34 0.15,-0.52l-0.15 -0.04c4.54,-15.72 10.9,-32.55 19.07,-50.34 9.5,-20.74 20.46,-39.47 32.81,-56.15 13.98,-18.86 29.6,-35.23 46.88,-49.09 0.4,-0.32 0.81,-0.63 1.22,-0.95l-0.12 -0.15 43.39 -34.08c2.35,-1.84 4.74,-3.59 7.16,-5.26 23.82,-18.03 49.38,-32.08 76.55,-42.07l-0.07 -0.18c31.83,-11.65 64.64,-17.52 98.28,-17.52l146.26 0c73.26,0 139.95,28.11 200.05,84.3 0.29,0.27 0.57,0.55 0.85,0.82l0.25 -0.26 39.16 37.25c1.75,1.66 3.44,3.36 5.08,5.08 27.11,26.51 47.53,58.12 61.27,94.85 13.26,35.5 19.87,73.72 19.87,114.65zm1115.06 566.55l0 7.49c0,52.67 -18.69,98.45 -56.03,136.56 -18.49,18.89 -39.55,33.2 -63.13,43.03 -23.76,9.94 -48.45,14.86 -74.02,14.86 -24.95,0 -49.5,-4.93 -73.63,-14.86 -22.96,-9.41 -43.63,-23 -61.94,-40.84l-0.01 0.01c-18.78,-18.36 -33.24,-39.51 -43.32,-63.47 -10.37,-24.54 -15.55,-49.55 -15.55,-75.08l0 -740.83c0,-25.1 5.1,-49.78 15.42,-74.12 10.09,-23.88 23.86,-44.55 41.37,-62.06 18.17,-18.17 39.63,-32.28 64.21,-42.29l-0.08 -0.19c23.53,-9.57 48.08,-14.31 73.53,-14.31 33.13,0 63.64,7.65 91.31,22.94 36.06,-15.29 72.81,-22.94 110.2,-22.94l24.13 0c35.9,0 71.05,6.88 105.42,20.66 31.39,12.59 60.87,30.91 88.41,54.96l0.03 -0.04 86.78 74.72c1.26,1.09 2.49,2.21 3.7,3.33 24.92,22.26 45.39,47.05 61.38,74.35l0 -10.88c0,-51.73 18.33,-96.89 54.94,-134.81l-0.01 -0.01c18.46,-19.22 39.34,-33.88 62.58,-43.87 24.04,-10.37 49.25,-15.55 75.67,-15.55 41.37,0 78.07,11.36 110.05,34.06 7.78,-4.23 15.56,-8.02 23.33,-11.37 35.06,-15.11 70.59,-22.69 106.65,-22.69l76.2 0c39.85,0 77.86,7.49 113.92,22.51 35.37,14.71 67.35,36.41 95.86,65.03 28.62,28.51 50.32,60.49 65.03,95.86 15.02,36.06 22.51,74.07 22.51,113.92l0 27.94c0,22.24 -3.33,43.26 -10,62.98 14.37,-28.87 33.3,-55.03 56.78,-78.51 3.5,-3.5 7.14,-6.78 10.91,-9.84 8.66,-7.87 17.64,-15.16 26.95,-21.87 -1.63,-3.3 -3.18,-6.67 -4.64,-10.09 -10.29,-24.06 -15.51,-49.05 -15.51,-74.75 0,-53.33 18.87,-98.89 56.58,-136.6 17.79,-17.79 38.83,-31.73 63.15,-41.75 24,-9.88 48.53,-14.83 73.66,-14.83l198.55 0c38.9,0 76.55,7.43 112.93,22.32 0.16,0.06 0.31,0.13 0.47,0.2l0.08 -0.2c35.42,14.51 67.34,35.77 95.68,63.77 28.35,27.96 50.18,59.66 65.41,95l0.2 -0.09c14.69,34.22 22.65,71.55 23.88,111.91l0.02 0 12.7 389.89c0.05,1.48 0.06,2.94 0.06,4.41l0.49 0c0,25.62 -4.93,50.28 -14.86,74.02 -9.83,23.59 -24.19,44.66 -43.03,63.13 -18.44,18.05 -39,31.8 -61.59,41.19 -23.78,9.91 -48.4,14.84 -73.7,14.84 -27.78,0 -53.64,-5.2 -77.47,-15.59 -20.39,10.4 -42.28,15.37 -63.92,15.35l0 0.24 -176.11 0c-39.73,0 -77.86,-7.49 -114.32,-22.51 -36.04,-14.83 -68.32,-36.51 -96.73,-65.03 -28.52,-28.41 -50.2,-60.69 -65.03,-96.73 -15.02,-36.46 -22.51,-74.59 -22.51,-114.32l0 -60.96c0,-36.44 6.23,-71.26 18.7,-104.48 -8.71,16.18 -19.98,31.35 -33.81,45.46 -18.49,18.89 -39.55,33.2 -63.13,43.03 -23.76,9.94 -48.45,14.86 -74.02,14.86 -53.33,0 -98.89,-18.87 -136.6,-56.58 -14.54,-14.54 -26.51,-31.28 -35.88,-50.2l-54.71 47.36 0 226.92c0,25.62 -4.93,50.28 -14.86,74.02 -9.83,23.59 -24.19,44.66 -43.03,63.13 -18.44,18.05 -39,31.8 -61.59,41.19 -23.78,9.91 -48.4,14.84 -73.7,14.84 -53.33,0 -98.89,-18.87 -136.6,-56.58 -4.27,-4.27 -8.2,-8.74 -11.81,-13.39 -12.41,-14.81 -22.4,-31.35 -29.94,-49.58 -9.88,-23.89 -14.83,-48.45 -14.83,-73.63l0 -12.66c-17.86,30.66 -41.23,58.38 -70.07,83.18l-81.62 70.23 0.05 0.05c-27.53,25.04 -59.27,43.98 -95.19,56.87 -34.19,12.27 -69.64,18.37 -106.3,18.37l-22.86 0c-0.73,0 -1.46,0 -2.19,-0.01zm22.43 -407.81l11.58 -10.15 0 -89.92 -11.36 -9.71 -22.65 22.4 0 65.02 22.43 22.36z"/>
   </g>
   <g>
    <path class="fil2" d="M-2314.94 21833.1l-222.67 0c-39.16,0 -72.6,-11.85 -100.33,-35.35l-101.18 -88.05c-32.17,-26.88 -48.26,-63.29 -48.26,-109.01l0 -135.89c-1.69,-44.03 16.51,-82.55 54.4,-115.15l91.02 -78.74c29.21,-23.92 60.53,-35.98 93.98,-35.98l233.25 0c14.4,0 26.67,5.08 36.62,15.24 10.16,10.16 15.24,22.44 15.24,36.83 0,14.82 -5.08,27.3 -15.24,37.25 -9.95,9.95 -22.22,14.82 -36.62,14.82l-223.31 0c-13.97,0 -27.3,5.5 -40,16.72l-83.61 71.33c-13.55,11.43 -20.32,27.1 -20.32,46.36l0 127.21c0,13.55 5.29,25.19 16.09,34.71l91.86 78.11c11.43,10.37 26.88,15.45 45.72,15.45l213.36 0c13.97,0 26.25,5.08 36.62,15.24 10.37,10.16 15.45,22.44 15.45,36.83 0,14.39 -5.08,26.67 -15.24,36.83 -10.16,10.16 -22.44,15.24 -36.83,15.24zm501.65 -328.93l105.41 0c13.97,0 26.25,5.08 36.62,15.24 10.37,10.16 15.45,22.44 15.45,36.83l0 88.9c0,14.39 -5.08,26.88 -15.24,37.46 -10.16,10.59 -22.44,15.88 -36.83,15.88l-106.68 0c-14.39,0 -26.67,-5.08 -36.83,-15.45 -10.16,-10.37 -15.24,-22.65 -15.24,-36.62l0 -90.17c0,-14.39 5.08,-26.67 15.45,-36.83 10.37,-10.16 23.07,-15.24 37.89,-15.24zm767.08 0l105.41 0c13.97,0 26.25,5.08 36.62,15.24 10.37,10.16 15.45,22.44 15.45,36.83l0 88.9c0,14.39 -5.08,26.88 -15.24,37.46 -10.16,10.59 -22.44,15.88 -36.83,15.88l-106.68 0c-14.39,0 -26.67,-5.08 -36.83,-15.45 -10.16,-10.37 -15.24,-22.65 -15.24,-36.62l0 -90.17c0,-14.39 5.08,-26.67 15.45,-36.83 10.37,-10.16 23.07,-15.24 37.89,-15.24zm767.08 0l105.41 0c13.97,0 26.25,5.08 36.62,15.24 10.37,10.16 15.45,22.44 15.45,36.83l0 88.9c0,14.39 -5.08,26.88 -15.24,37.46 -10.16,10.59 -22.44,15.88 -36.83,15.88l-106.68 0c-14.39,0 -26.67,-5.08 -36.83,-15.45 -10.16,-10.37 -15.24,-22.65 -15.24,-36.62l0 -90.17c0,-14.39 5.08,-26.67 15.45,-36.83 10.37,-10.16 23.07,-15.24 37.89,-15.24z"/>
    <path id="_1_1" class="fil1" d="M-2314.94 21974.21l-222.67 0c-35.16,0 -68.93,-5.74 -101.24,-17.11 -32.93,-11.6 -62.97,-28.93 -90.04,-51.86 -0.5,-0.43 -0.99,-0.86 -1.49,-1.29l-0.16 0.18 -101.18 -88.05c-1.64,-1.43 -3.24,-2.89 -4.8,-4.38 -29.43,-26.23 -52.04,-57.13 -67.77,-92.65 -16.11,-36.44 -24.2,-75.93 -24.2,-118.36l0 -135.89c0,-3.39 0.13,-6.76 0.36,-10.09 0.53,-39.29 9.12,-76.61 25.78,-111.85 17.55,-37.17 43.53,-70.6 77.87,-100.14 0.79,-0.68 1.59,-1.34 2.39,-1.99l88.08 -76.2c0.98,-0.85 1.97,-1.68 2.97,-2.49l-0.22 -0.27c26.23,-21.49 54.47,-38.05 84.6,-49.58 31.93,-12.22 64.83,-18.37 98.68,-18.37l233.25 0c53,0 98.62,18.96 136.12,56.85l0.27 -0.27c17.77,17.77 31.7,38.83 41.75,63.13 9.88,23.88 14.83,48.37 14.83,73.47 0,53.44 -18.97,99.25 -56.85,136.75l0.27 0.27c-17.98,17.98 -39.21,31.91 -63.5,41.79l0.08 0.19c-23.41,9.47 -47.77,14.18 -72.97,14.18l-192.28 0 -33.85 28.88 0 47.82 36.42 30.97 189.5 0c51.78,0 97.17,18.68 135.29,56.03 18.84,18.47 33.19,39.53 43.03,63.13 9.94,23.76 14.86,48.45 14.86,74.02 0,53.33 -18.87,98.89 -56.58,136.6 -17.76,17.76 -38.82,31.7 -63.13,41.75 -23.88,9.88 -48.37,14.83 -73.47,14.83zm0 -141.11l-222.67 0c-39.16,0 -72.6,-11.85 -100.33,-35.35l-101.18 -88.05c-32.17,-26.88 -48.26,-63.29 -48.26,-109.01l0 -135.89c-1.69,-44.03 16.51,-82.55 54.4,-115.15l91.02 -78.74c29.21,-23.92 60.53,-35.98 93.98,-35.98l233.25 0c14.4,0 26.67,5.08 36.62,15.24 10.16,10.16 15.24,22.44 15.24,36.83 0,14.82 -5.08,27.3 -15.24,37.25 -9.95,9.95 -22.22,14.82 -36.62,14.82l-223.31 0c-13.97,0 -27.3,5.5 -40,16.72l-83.61 71.33c-13.55,11.43 -20.32,27.1 -20.32,46.36l0 127.21c0,13.55 5.29,25.19 16.09,34.71l91.86 78.11c11.43,10.37 26.88,15.45 45.72,15.45l213.36 0c13.97,0 26.25,5.08 36.62,15.24 10.37,10.16 15.45,22.44 15.45,36.83 0,14.39 -5.08,26.67 -15.24,36.83 -10.16,10.16 -22.44,15.24 -36.83,15.24zm501.65 -328.93l105.41 0c13.97,0 26.25,5.08 36.62,15.24 10.37,10.16 15.45,22.44 15.45,36.83l0 88.9c0,14.39 -5.08,26.88 -15.24,37.46 -10.16,10.59 -22.44,15.88 -36.83,15.88l-106.68 0c-14.39,0 -26.67,-5.08 -36.83,-15.45 -10.16,-10.37 -15.24,-22.65 -15.24,-36.62l0 -90.17c0,-14.39 5.08,-26.67 15.45,-36.83 10.37,-10.16 23.07,-15.24 37.89,-15.24zm767.08 0l105.41 0c13.97,0 26.25,5.08 36.62,15.24 10.37,10.16 15.45,22.44 15.45,36.83l0 88.9c0,14.39 -5.08,26.88 -15.24,37.46 -10.16,10.59 -22.44,15.88 -36.83,15.88l-106.68 0c-14.39,0 -26.67,-5.08 -36.83,-15.45 -10.16,-10.37 -15.24,-22.65 -15.24,-36.62l0 -90.17c0,-14.39 5.08,-26.67 15.45,-36.83 10.37,-10.16 23.07,-15.24 37.89,-15.24zm767.08 0l105.41 0c13.97,0 26.25,5.08 36.62,15.24 10.37,10.16 15.45,22.44 15.45,36.83l0 88.9c0,14.39 -5.08,26.88 -15.24,37.46 -10.16,10.59 -22.44,15.88 -36.83,15.88l-106.68 0c-14.39,0 -26.67,-5.08 -36.83,-15.45 -10.16,-10.37 -15.24,-22.65 -15.24,-36.62l0 -90.17c0,-14.39 5.08,-26.67 15.45,-36.83 10.37,-10.16 23.07,-15.24 37.89,-15.24zm-1534.16 -141.11l105.41 0c51.78,0 97.17,18.68 135.29,56.03 18.84,18.47 33.19,39.53 43.03,63.13 9.94,23.76 14.86,48.45 14.86,74.02l0 88.9c0,51.86 -18.31,96.89 -54.93,135.02 -18.44,19.2 -39.31,33.84 -62.58,43.88 -6.43,2.76 -12.96,5 -19.53,6.75 -18.52,5.87 -37.24,8.8 -56.14,8.8l-106.68 0c-25.62,0 -50.28,-4.93 -74.02,-14.86 -23.6,-9.84 -44.65,-24.15 -63.13,-43.03 -18.03,-18.43 -31.8,-38.99 -41.19,-61.59 -9.9,-23.76 -14.84,-48.38 -14.84,-73.7l0 -90.17c0,-25.57 4.92,-50.26 14.86,-74.02 9.83,-23.58 24.14,-44.64 43.03,-63.13 18.68,-18.29 39.93,-32.23 63.55,-41.74 23.66,-9.53 48.04,-14.29 73.01,-14.29zm767.08 0l105.41 0c51.78,0 97.17,18.68 135.29,56.03 18.84,18.47 33.19,39.53 43.03,63.13 9.94,23.76 14.86,48.45 14.86,74.02l0 88.9c0,51.86 -18.31,96.89 -54.93,135.02 -18.44,19.2 -39.31,33.84 -62.58,43.88 -6.43,2.76 -12.96,5 -19.53,6.75 -18.52,5.87 -37.24,8.8 -56.14,8.8l-106.68 0c-25.62,0 -50.28,-4.93 -74.02,-14.86 -23.6,-9.84 -44.65,-24.15 -63.13,-43.03 -18.03,-18.43 -31.8,-38.99 -41.19,-61.59 -9.9,-23.76 -14.84,-48.38 -14.84,-73.7l0 -90.17c0,-25.57 4.92,-50.26 14.86,-74.02 9.83,-23.58 24.14,-44.64 43.03,-63.13 18.68,-18.29 39.93,-32.23 63.55,-41.74 23.66,-9.53 48.04,-14.29 73.01,-14.29zm767.08 0l105.41 0c51.78,0 97.17,18.68 135.29,56.03 18.84,18.47 33.19,39.53 43.03,63.13 9.94,23.76 14.86,48.45 14.86,74.02l0 88.9c0,51.86 -18.31,96.89 -54.93,135.02 -18.44,19.2 -39.31,33.84 -62.58,43.88 -6.43,2.76 -12.96,5 -19.53,6.75 -18.52,5.87 -37.24,8.8 -56.14,8.8l-106.68 0c-25.62,0 -50.28,-4.93 -74.02,-14.86 -23.6,-9.84 -44.65,-24.15 -63.13,-43.03 -18.03,-18.43 -31.8,-38.99 -41.19,-61.59 -9.9,-23.76 -14.84,-48.38 -14.84,-73.7l0 -90.17c0,-25.57 4.92,-50.26 14.86,-74.02 9.83,-23.58 24.14,-44.64 43.03,-63.13 18.68,-18.29 39.93,-32.23 63.55,-41.74 23.66,-9.53 48.04,-14.29 73.01,-14.29z"/>
   </g>
  </g>
 </g>
</svg>
